<?xml version="1.0" encoding="UTF-8" standalone="no"?>
<svg
   viewBox="195.29022 62.874004 132.3577 110.24717"
   height="20"
   version="1.1"
   id="svg300"
   sodipodi:docname="laTartine.svg"
   xml:space="preserve"
   inkscape:version="1.4 (86a8ad7, 2024-10-11)"
   xmlns:inkscape="http://www.inkscape.org/namespaces/inkscape"
   xmlns:sodipodi="http://sodipodi.sourceforge.net/DTD/sodipodi-0.dtd"
   xmlns="http://www.w3.org/2000/svg"
   xmlns:svg="http://www.w3.org/2000/svg"><defs
     id="defs300"><inkscape:path-effect
       effect="offset"
       id="path-effect309"
       is_visible="true"
       lpeversion="1.3"
       linejoin_type="round"
       unit="mm"
       offset="0.25"
       miter_limit="4"
       attempt_force_join="false"
       update_on_knot_move="true" /><inkscape:path-effect
       effect="offset"
       id="path-effect307"
       is_visible="true"
       lpeversion="1.3"
       linejoin_type="round"
       unit="mm"
       offset="0.25"
       miter_limit="4"
       attempt_force_join="false"
       update_on_knot_move="true" /><inkscape:path-effect
       effect="offset"
       id="path-effect305"
       is_visible="true"
       lpeversion="1.3"
       linejoin_type="miter"
       unit="mm"
       offset="0.25"
       miter_limit="4"
       attempt_force_join="false"
       update_on_knot_move="true" /><inkscape:path-effect
       effect="offset"
       id="path-effect303"
       is_visible="true"
       lpeversion="1.3"
       linejoin_type="miter"
       unit="mm"
       offset="0.25"
       miter_limit="4"
       attempt_force_join="false"
       update_on_knot_move="true" /><inkscape:path-effect
       effect="offset"
       id="path-effect300"
       is_visible="true"
       lpeversion="1.3"
       linejoin_type="miter"
       unit="mm"
       offset="0.25"
       miter_limit="4"
       attempt_force_join="false"
       update_on_knot_move="true" /></defs><sodipodi:namedview
     id="namedview300"
     pagecolor="#ffffff"
     bordercolor="#999999"
     borderopacity="1"
     inkscape:showpageshadow="2"
     inkscape:pageopacity="0"
     inkscape:pagecheckerboard="0"
     inkscape:deskcolor="#d1d1d1"
     showguides="true"
     inkscape:zoom="1.7755557"
     inkscape:cx="83.072585"
     inkscape:cy="136.01376"
     inkscape:window-width="1920"
     inkscape:window-height="1001"
     inkscape:window-x="-9"
     inkscape:window-y="-9"
     inkscape:window-maximized="1"
     inkscape:current-layer="svg300"><sodipodi:guide
       position="154.61875,55.123577"
       orientation="0,-1"
       id="guide300"
       inkscape:locked="false" /></sodipodi:namedview><g
     transform="matrix(0.47643548,0,0,0.47643548,131.97194,-187.82635)"
     id="g300"><g
       id="g299"><g
         id="g2"><path
           class="st105"
           d="m 407,691.9 c 0,-44.5 -2.7,-72.8 -3.6,-83.1 L 328.8,598.6 162.6,580 137,576.5 c -1.7,8.8 -0.2,39.6 1.2,68.2 1.5,29.5 2.6,56.4 5.3,59.1 5.7,5.7 20.6,11.1 20.6,11.1 0,0 230.9,41.6 241.3,41.6 10.4,0 1.6,-18.1 1.6,-64.6 z"
           style="fill:#fbe6c6"
           id="path1" /></g><g
         id="g3"><path
           class="st11"
           d="M 132.9,645"
           style="fill:none;stroke:#fbddaf;stroke-miterlimit:10"
           id="path2" /></g><g
         class="st82"
         style="opacity:0.22"
         id="g4"><path
           class="st106"
           d="m 141.1,692.4 c 0.7,6.2 1.4,10.3 2.4,11.3 5.7,5.7 20.6,11.1 20.6,11.1 0,0 230.9,41.6 241.3,41.6 4.6,0 5.5,-3.5 5,-11.4 -27.8,-3.2 -249.1,-41.4 -249.1,-41.4 0,0 -12.9,-5.9 -20.2,-11.2 z"
           style="fill:#b2403d"
           id="path3" /></g><g
         class="st71"
         style="opacity:0.39"
         id="g5"><path
           class="st106"
           d="m 164.1,714.9 c 0,0 230.9,41.6 241.3,41.6 3.3,0 4.7,-1.9 5,-5.9 0,-0.2 0,-0.4 0,-0.6 -27.8,-3.2 -249.1,-41.4 -249.1,-41.4 0,0 -12,-5.6 -19.4,-10.7 0.5,3.1 1.1,5.2 1.7,5.9 5.6,5.6 20.5,11.1 20.5,11.1 z"
           style="fill:#b2403d"
           id="path4" /></g><path
         class="st105"
         d="m 135.4,595.5 c -0.3,1.1 -0.5,2.2 -0.8,3.3 1.3,-0.6 2.4,1.4 2.1,2.8 -0.3,1.4 -1.3,2.7 -1.2,4.1 0.1,1.7 1.6,3 1.7,4.6 0.2,2.7 -3.2,4.5 -3.3,7.2 -0.1,2.4 1.4,4 0.7,6.6 -0.6,2.1 -3.7,5.9 0.5,6.5 -0.5,2.9 -1.7,6.3 -0.7,9.1 0.8,2.1 1.7,2.7 1.3,5.3 -0.3,1.7 0,4.1 1.7,4.5 -0.3,2.4 0.8,4.7 1.5,7.1 1.7,5.8 -4.6,9.8 -1.1,15.6 -0.1,-0.2 -0.9,2.8 -0.8,3.3 0.1,0.9 0.8,2 1,3.1 0.4,2.1 -0.3,5.3 2.1,6.5 -1.8,0.1 -2.5,2.5 -2,4.2 0.5,1.7 1.6,3.3 1.6,5.1 0,0.9 -0.2,1.7 -0.2,2.6 0,1.7 1.8,4.9 3.6,5.1 3.5,0.5 0.6,-9.6 0.5,-11.8 -0.2,-7.2 -0.4,-14.4 -0.6,-21.5 -0.4,-14.6 -0.8,-29.3 -1.5,-43.9 -0.7,-15.2 0.7,-30.2 -1.6,-45.4 -2.3,0.7 -3.9,0.8 -5.2,3.1 -1,1.8 -1.8,6.6 -1.5,8.7 0.2,0.3 2,5.3 2.2,4.2 z"
         style="fill:#fbe6c6"
         id="path5" /><g
         class="st17"
         style="opacity:0.11"
         id="g6"><path
           class="st18"
           d="m 407.3,692.9 c 0,-46.6 -2.9,-75.4 -3.7,-84.4 -0.3,-3.3 -4.2,-6.6 -9.5,-10 1,16.1 2.9,55.5 2.9,95.6 0,39.1 6.3,55.3 2,62.5 3.5,0.6 5.8,1 6.6,1 10.4,-0.1 1.7,-18.1 1.7,-64.7 z"
           style="fill:#b8925e"
           id="path6" /></g><g
         id="g7"><path
           class="st107"
           d="m 403.5,616.6 c -0.2,-2.8 -0.4,-5.1 -0.6,-6.7 -0.8,-9 -28.8,-18.7 -39.8,-26.1 -11,-7.4 -34.2,-24.7 -52.8,-35.4 -18.6,-10.7 -29.2,-20.7 -38.2,-20.7 -9,0 -73.8,21.3 -73.8,21.3 0,0 -55.2,22 -60.9,27.7 -0.7,0.7 -1.1,3.2 -1.4,7.1 13.4,2.9 52.7,11.5 72.7,14.3 23.2,3.4 165.8,21.6 194.8,18.5 z"
           style="fill:#e5d0af"
           id="path7" /></g><g
         id="g8"><path
           class="st108"
           d="m 403.7,615.1 c -0.2,-2.8 -0.4,-5.1 -0.6,-6.7 -0.8,-9 -28.8,-18.7 -39.8,-26.1 -11,-7.4 -34.2,-24.7 -52.8,-35.4 -18.6,-10.7 -29.2,-20.7 -38.2,-20.7 -9,0 -73.8,21.3 -73.8,21.3 0,0 -55.2,22 -60.9,27.7 -0.7,0.7 -1.1,3.2 -1.4,7.1 13.4,2.9 52.7,11.5 72.7,14.3 23.2,3.4 165.8,21.6 194.8,18.5 z"
           style="fill:#e7cda6"
           id="path8" /></g><g
         id="g9"><path
           class="st109"
           d="m 403.2,609.1 c 0,-0.2 0,-0.4 -0.1,-0.6 -0.8,-9 -28.8,-18.7 -39.8,-26.1 -11,-7.4 -34.2,-24.7 -52.8,-35.4 -18.6,-10.7 -29.2,-20.7 -38.2,-20.7 -9,0 -73.8,21.3 -73.8,21.3 0,0 -55.2,22 -60.9,27.7 -0.2,0.2 -0.4,0.6 -0.6,1.2 14.1,3.1 52.3,11.4 71.9,14.2 23.1,3.2 164.1,21.2 194.3,18.4 z"
           style="fill:#fbe4c1"
           id="path9" /></g><g
         class="st25"
         style="opacity:0.08"
         id="g10"><path
           class="st24"
           d="m 310.5,546.9 c -18.6,-10.7 -29.2,-20.7 -38.2,-20.7 -9,0 -73.8,21.3 -73.8,21.3 0,0 -55.2,22 -60.9,27.7 -0.2,0.2 -0.4,0.6 -0.6,1.2 14.1,3.1 52.3,11.4 71.9,14.2 6.3,0.9 21.7,2.9 41.1,5.3 14.3,-11.7 40.6,-31.4 69.3,-43.6 -2.9,-1.9 -5.9,-3.7 -8.8,-5.4 z"
           style="fill:#ff7a00"
           id="path10" /></g><g
         class="st110"
         style="opacity:0.63"
         id="g11"><path
           class="st107"
           d="m 272.3,526.2 c -9,0 -73.8,21.3 -73.8,21.3 0,0 -55.2,22 -60.9,27.7 -0.2,0.2 -0.4,0.6 -0.6,1.2 12.4,2.7 43.6,9.5 64.2,13 16.3,-13.9 47.7,-35.7 96.7,-50.2 -11.2,-7.4 -18.9,-13 -25.6,-13 z"
           style="fill:#e5d0af"
           id="path11" /></g><path
         class="st27"
         d="m 192.7,572.3 c 0,0 13.6,-15 31.1,-14.5 17.6,0.4 39.2,-23.1 55.8,-19.1 16.6,4 91.2,53.4 83.9,57.2 -7.3,3.9 -168.5,-6 -170.8,-23.6 z"
         style="opacity:0.19;fill:#ffffff"
         id="path12" /><g
         id="g13"><path
           class="st111"
           d="m 298.4,547.5 c 9.7,5.6 15.3,3.6 17.9,10.7 2.6,7.1 9.2,12 15.7,10.2 6.5,-1.8 10.9,3 11.9,3.9 1,0.9 0.5,4.6 4.7,7.9 4.2,3.3 7.6,1 10.9,3.5 3.3,2.5 9,9.9 15.2,12.2 4.8,1.8 16.5,6.2 24.5,6.6 -8.2,-7.2 -27.3,-14.4 -36,-20.2 -11,-7.4 -34.2,-24.7 -52.8,-35.4 -9.5,-5.5 -16.9,-10.8 -23.1,-14.6 2.1,5 5.4,11.9 11.1,15.2 z"
           style="fill:#f1dbb9"
           id="path13" /></g><path
         class="st112"
         d="m 146.9,572.3 c 0,0 21.5,9.8 31.5,4.1 10,-5.7 24.6,-15.6 39.1,-15.4 14.4,0.2 30.1,-4.1 40.3,-9.7 10.2,-5.6 15.7,0.3 23.8,-6.8 8.1,-7.1 -0.2,-11.2 -3.2,-12.2 -3,-1 -22.7,4 -26.6,6 -3.9,2 -16.1,3 -25.8,6 -12.1,3.8 -22.6,8.1 -33.9,13.7 -9.5,4.6 -19.7,7.9 -30.1,9.7 -5.3,0.9 -10.9,1.3 -15.1,4.6 z"
         style="opacity:0.4;fill:#dac7a8"
         id="path14" /><g
         class="st35"
         style="opacity:0.68"
         id="g15"><path
           class="st3"
           d="m 221,585.7 c 0,0 2.3,0.4 6.4,1 4.1,0.6 9.9,1.5 16.8,2.6 3.5,0.5 7.3,1.1 11.3,1.7 4,0.6 8.2,1.2 12.6,1.8 4.4,0.6 8.9,1.2 13.5,1.8 4.6,0.6 9.3,1.1 13.9,1.7 4.7,0.6 9.3,1.1 13.9,1.6 4.6,0.5 9.1,0.9 13.5,1.3 4.4,0.3 8.6,0.7 12.7,1 4,0.2 7.8,0.4 11.3,0.6 3.5,0.2 6.7,0.2 9.6,0.3 2.9,0.1 5.4,0.1 7.4,0.1 4.1,0 6.5,0 6.5,0 l 0.1,1.1 c 0,0 -2.4,0.1 -6.5,0.4 -2.1,0.1 -4.6,0.3 -7.4,0.3 -2.9,0 -6.1,0.1 -9.7,0 -3.5,-0.1 -7.4,-0.2 -11.4,-0.3 -4,-0.2 -8.3,-0.4 -12.7,-0.7 -4.4,-0.4 -9,-0.7 -13.6,-1.2 -4.6,-0.5 -9.3,-0.9 -14,-1.5 -4.7,-0.6 -9.4,-1.1 -13.9,-1.8 -4.6,-0.6 -9.1,-1.3 -13.5,-1.9 -4.4,-0.6 -8.6,-1.4 -12.6,-2 -4,-0.7 -7.8,-1.4 -11.2,-2 -7,-1.3 -12.7,-2.5 -16.8,-3.3 -4,-0.8 -6.3,-1.4 -6.3,-1.4 z"
           style="fill:#ffffff"
           id="path15" /></g><g
         id="g36"><path
           class="st113"
           d="m 162,567.6 c 0,0 -1.6,12.3 20.4,6.5 0,0 -16,-3.4 -15.7,-7.4 z"
           style="fill:#58403e"
           id="path16" /><path
           class="st113"
           d="m 242.6,568.5 c 0,0 -1,8 13.4,4.2 0,0 -10.5,-2.2 -10.3,-4.8 z"
           style="fill:#58403e"
           id="path17" /><path
           class="st113"
           d="m 292.1,548.2 c 0,0 -2.9,5 7.7,6.5 0,0 -6.3,-4.4 -5.5,-6.1 z"
           style="fill:#58403e"
           id="path18" /><path
           class="st113"
           d="m 258.5,579.5 c 0,0 -2.9,5 7.7,6.5 0,0 -6.3,-4.4 -5.5,-6.1 z"
           style="fill:#58403e"
           id="path19" /><path
           class="st113"
           d="m 274.7,570.4 c 0,0 -2.9,5 7.7,6.5 0,0 -6.3,-4.4 -5.5,-6.1 z"
           style="fill:#58403e"
           id="path20" /><path
           class="st113"
           d="m 315.1,564.7 c 0,0 -2.9,5 7.7,6.5 0,0 -6.3,-4.4 -5.5,-6.1 z"
           style="fill:#58403e"
           id="path21" /><path
           class="st113"
           d="m 225.4,578.3 c 0,0 -1,8 13.4,4.2 0,0 -10.5,-2.2 -10.3,-4.8 z"
           style="fill:#58403e"
           id="path22" /><path
           class="st113"
           d="m 183.3,561.5 c 0,0 -1,8 13.4,4.2 0,0 -10.5,-2.2 -10.3,-4.8 z"
           style="fill:#58403e"
           id="path23" /><path
           class="st113"
           d="m 281.8,584.2 c 0,0 -1,8 13.4,4.2 0,0 -10.5,-2.2 -10.3,-4.8 z"
           style="fill:#58403e"
           id="path24" /><path
           class="st113"
           d="m 231.3,542.5 c 0,0 -1,8 13.4,4.2 0,0 -10.5,-2.2 -10.3,-4.8 z"
           style="fill:#58403e"
           id="path25" /><path
           class="st113"
           d="m 201.6,563.8 c 0,0 -6.4,10.6 16.1,14.2 0,0 -6.8,-3.6 -10.3,-7.2 -2.2,-2.3 -1.9,-4.6 -1.1,-6 z"
           style="fill:#58403e"
           id="path26" /><path
           class="st113"
           d="m 248.1,547.2 c 0,0 -3.5,5.8 8.8,7.7 0,0 -3.7,-1.9 -5.6,-3.9 -1.2,-1.2 -1,-2.5 -0.6,-3.2 z"
           style="fill:#58403e"
           id="path27" /><path
           class="st113"
           d="m 212.8,554 c 0,0 -3.5,5.8 8.8,7.7 0,0 -3.7,-1.9 -5.6,-3.9 -1.2,-1.2 -1,-2.5 -0.6,-3.2 z"
           style="fill:#58403e"
           id="path28" /><path
           class="st113"
           d="m 268.8,551 c 0,0 -6.4,10.6 16.1,14.2 0,0 -6.8,-3.6 -10.3,-7.2 -2.2,-2.3 -1.9,-4.6 -1.1,-6 z"
           style="fill:#58403e"
           id="path29" /><path
           class="st113"
           d="m 346.6,587.4 c 0,0 -3.7,7.8 12.1,8.8 0,0 -5,-2 -7.6,-4.3 -1.7,-1.4 -1.6,-3.1 -1.2,-4.1 z"
           style="fill:#58403e"
           id="path30" /><path
           class="st113"
           d="m 306.7,583 c 0,0 -3.7,7.8 12.1,8.8 0,0 -5,-2 -7.6,-4.3 -1.7,-1.4 -1.6,-3.1 -1.2,-4.1 z"
           style="fill:#58403e"
           id="path31" /><path
           class="st113"
           d="m 226.4,555.7 c 0,0 -1,4.1 4.6,6.6 2.9,1.3 8.6,1 16.3,-0.3 0,0 -7.6,-1.2 -12,-3.6 -2.8,-1.5 -3.2,-3.8 -2.9,-5.3 z"
           style="fill:#58403e"
           id="path32" /><path
           class="st113"
           d="m 291.2,570.5 c 0,0 -1,4.1 4.6,6.6 2.9,1.3 8.6,1 16.3,-0.3 0,0 -7.6,-1.2 -12,-3.6 -2.8,-1.5 -3.2,-3.8 -2.9,-5.3 z"
           style="fill:#58403e"
           id="path33" /><path
           class="st113"
           d="m 268.4,537 c 0,0 -0.7,2.7 3,4.4 1.9,0.9 5.7,0.7 10.8,-0.2 0,0 -5,-0.8 -7.9,-2.4 -1.8,-1 -2.1,-2.5 -1.9,-3.5 z"
           style="fill:#58403e"
           id="path34" /><path
           class="st113"
           d="m 366.9,593.8 c 0,0 -0.5,2.1 2.3,3.3 1.5,0.7 4.3,0.5 8.2,-0.1 0,0 -3.9,-0.6 -6.1,-1.8 -1.4,-0.8 -1.6,-1.9 -1.5,-2.7 z"
           style="fill:#58403e"
           id="path35" /><path
           class="st113"
           d="m 322.2,578.7 c 0,0 -0.8,3.2 3.6,5.1 2.3,1 6.6,0.8 12.6,-0.2 0,0 -5.9,-1 -9.3,-2.8 -2.2,-1.2 -2.5,-2.9 -2.3,-4.1 z"
           style="fill:#58403e"
           id="path36" /></g><g
         class="st82"
         style="opacity:0.22"
         id="g57"><path
           class="st113"
           d="m 170.7,568.7 c 0,0 -1.6,12.3 20.4,6.5 0,0 -16,-3.4 -15.7,-7.4 z"
           style="fill:#58403e"
           id="path37" /><path
           class="st113"
           d="m 251.3,569.5 c 0,0 -1,8 13.4,4.2 0,0 -10.5,-2.2 -10.3,-4.8 z"
           style="fill:#58403e"
           id="path38" /><path
           class="st113"
           d="m 300.8,549.3 c 0,0 -2.9,5 7.7,6.5 0,0 -6.3,-4.4 -5.5,-6.1 z"
           style="fill:#58403e"
           id="path39" /><path
           class="st113"
           d="m 267.1,580.5 c 0,0 -2.9,5 7.7,6.5 0,0 -6.3,-4.4 -5.5,-6.1 z"
           style="fill:#58403e"
           id="path40" /><path
           class="st113"
           d="m 283.4,571.5 c 0,0 -2.9,5 7.7,6.5 0,0 -6.3,-4.4 -5.5,-6.1 z"
           style="fill:#58403e"
           id="path41" /><path
           class="st113"
           d="m 323.8,565.8 c 0,0 -2.9,5 7.7,6.5 0,0 -6.3,-4.4 -5.5,-6.1 z"
           style="fill:#58403e"
           id="path42" /><path
           class="st113"
           d="m 234.1,579.4 c 0,0 -1,8 13.4,4.2 0,0 -10.5,-2.2 -10.3,-4.8 z"
           style="fill:#58403e"
           id="path43" /><path
           class="st113"
           d="m 192,562.6 c 0,0 -1,8 13.4,4.2 0,0 -10.5,-2.2 -10.3,-4.8 z"
           style="fill:#58403e"
           id="path44" /><path
           class="st113"
           d="m 290.4,585.2 c 0,0 -1,8 13.4,4.2 0,0 -10.5,-2.2 -10.3,-4.8 z"
           style="fill:#58403e"
           id="path45" /><path
           class="st113"
           d="m 239.9,543.6 c 0,0 -1,8 13.4,4.2 0,0 -10.5,-2.2 -10.3,-4.8 z"
           style="fill:#58403e"
           id="path46" /><path
           class="st113"
           d="m 210.2,564.9 c 0,0 -6.4,10.6 16.1,14.2 0,0 -6.8,-3.6 -10.3,-7.2 -2.2,-2.3 -1.9,-4.6 -1.1,-6 z"
           style="fill:#58403e"
           id="path47" /><path
           class="st113"
           d="m 256.8,548.2 c 0,0 -3.5,5.8 8.8,7.7 0,0 -3.7,-1.9 -5.6,-3.9 -1.2,-1.2 -1,-2.5 -0.6,-3.2 z"
           style="fill:#58403e"
           id="path48" /><path
           class="st113"
           d="m 221.4,555 c 0,0 -3.5,5.8 8.8,7.7 0,0 -3.7,-1.9 -5.6,-3.9 -1.2,-1.2 -1,-2.5 -0.6,-3.2 z"
           style="fill:#58403e"
           id="path49" /><path
           class="st113"
           d="m 277.4,552.1 c 0,0 -6.4,10.6 16.1,14.2 0,0 -6.8,-3.6 -10.3,-7.2 -2.2,-2.3 -1.9,-4.6 -1.1,-6 z"
           style="fill:#58403e"
           id="path50" /><path
           class="st113"
           d="m 355.3,588.5 c 0,0 -3.7,7.8 12.1,8.8 0,0 -5,-2 -7.6,-4.3 -1.7,-1.4 -1.6,-3.1 -1.2,-4.1 z"
           style="fill:#58403e"
           id="path51" /><path
           class="st113"
           d="m 315.3,584.1 c 0,0 -3.7,7.8 12.1,8.8 0,0 -5,-2 -7.6,-4.3 -1.7,-1.4 -1.6,-3.1 -1.2,-4.1 z"
           style="fill:#58403e"
           id="path52" /><path
           class="st113"
           d="m 235.1,556.7 c 0,0 -1,4.1 4.6,6.6 2.9,1.3 8.6,1 16.3,-0.3 0,0 -7.6,-1.2 -12,-3.6 -2.8,-1.5 -3.2,-3.8 -2.9,-5.3 z"
           style="fill:#58403e"
           id="path53" /><path
           class="st113"
           d="m 299.9,571.6 c 0,0 -1,4.1 4.6,6.6 2.9,1.3 8.6,1 16.3,-0.3 0,0 -7.6,-1.2 -12,-3.6 -2.8,-1.5 -3.2,-3.8 -2.9,-5.3 z"
           style="fill:#58403e"
           id="path54" /><path
           class="st113"
           d="m 277,538.1 c 0,0 -0.7,2.7 3,4.4 1.9,0.9 5.7,0.7 10.8,-0.2 0,0 -5,-0.8 -7.9,-2.4 -1.8,-1 -2.1,-2.5 -1.9,-3.5 z"
           style="fill:#58403e"
           id="path55" /><path
           class="st113"
           d="m 375.6,594.9 c 0,0 -0.5,2.1 2.3,3.3 1.5,0.7 4.3,0.5 8.2,-0.1 0,0 -3.9,-0.6 -6.1,-1.8 -1.4,-0.8 -1.6,-1.9 -1.5,-2.7 z"
           style="fill:#58403e"
           id="path56" /><path
           class="st113"
           d="m 330.9,579.8 c 0,0 -0.8,3.2 3.6,5.1 2.3,1 6.6,0.8 12.6,-0.2 0,0 -5.9,-1 -9.3,-2.8 -2.2,-1.2 -2.5,-2.9 -2.3,-4.1 z"
           style="fill:#58403e"
           id="path57" /></g><g
         id="g72"><path
           class="st10"
           d="m 191.1,579 c -0.2,-2.3 8.7,-2.1 9.2,0 0.4,2.2 -9,2.3 -9.2,0 z"
           style="fill:#673c2e"
           id="path58" /><path
           class="st10"
           d="m 291.7,562 c -0.1,-2.7 6.5,-2.5 6.8,0 0.4,2.5 -6.6,2.8 -6.8,0 z"
           style="fill:#673c2e"
           id="path59" /><path
           class="st10"
           d="m 286.8,581.7 c -0.1,-2.7 6.5,-2.5 6.8,0 0.3,2.5 -6.7,2.7 -6.8,0 z"
           style="fill:#673c2e"
           id="path60" /><path
           class="st10"
           d="m 298.2,588.4 c -0.1,-1.4 5.7,-1.3 6,0 0.3,1.3 -5.9,1.4 -6,0 z"
           style="fill:#673c2e"
           id="path61" /><path
           class="st10"
           d="m 334.1,576 c -0.1,-2.1 5,-1.9 5.2,0 0.3,1.9 -5.1,2.1 -5.2,0 z"
           style="fill:#673c2e"
           id="path62" /><path
           class="st10"
           d="m 225.6,572.4 c -0.1,-1.6 6.2,-1.5 6.6,0 0.3,1.5 -6.5,1.7 -6.6,0 z"
           style="fill:#673c2e"
           id="path63" /><path
           class="st10"
           d="m 263.5,569.1 c -0.1,-1.6 6.2,-1.5 6.6,0 0.2,1.5 -6.5,1.6 -6.6,0 z"
           style="fill:#673c2e"
           id="path64" /><path
           class="st10"
           d="m 260.9,544.8 c -0.1,-1.6 6.2,-1.5 6.6,0 0.3,1.6 -6.5,1.7 -6.6,0 z"
           style="fill:#673c2e"
           id="path65" /><path
           class="st10"
           d="m 249,582.7 c -0.1,-1.6 6.2,-1.5 6.6,0 0.3,1.5 -6.5,1.7 -6.6,0 z"
           style="fill:#673c2e"
           id="path66" /><path
           class="st10"
           d="m 268,585 c -0.1,-2.1 6.2,-2 6.6,0 0.3,1.9 -6.5,2.1 -6.6,0 z"
           style="fill:#673c2e"
           id="path67" /><path
           class="st10"
           d="m 203.2,555.5 c -0.1,-1.3 4.9,-1.2 5.1,0 0.3,1.2 -5,1.3 -5.1,0 z"
           style="fill:#673c2e"
           id="path68" /><path
           class="st10"
           d="m 226.8,551.5 c -0.1,-1.3 4.9,-1.2 5.1,0 0.2,1.2 -5,1.3 -5.1,0 z"
           style="fill:#673c2e"
           id="path69" /><path
           class="st10"
           d="m 331.5,589.4 c -0.1,-1.3 4.9,-1.2 5.1,0 0.2,1.2 -5,1.3 -5.1,0 z"
           style="fill:#673c2e"
           id="path70" /><path
           class="st10"
           d="m 380.4,600.4 c -0.1,-1.3 4.9,-1.2 5.1,0 0.2,1.2 -5,1.3 -5.1,0 z"
           style="fill:#673c2e"
           id="path71" /><path
           class="st10"
           d="m 350.6,587 c -0.1,-1.3 4.9,-1.2 5.1,0 0.3,1.2 -5,1.3 -5.1,0 z"
           style="fill:#673c2e"
           id="path72" /></g><g
         class="st110"
         style="opacity:0.63"
         id="g73"><path
           class="st106"
           d="m 403.6,627.7 c -0.9,-1 -2.3,-1.6 -3.7,-1.6 -1.8,0.4 -3.5,0.9 -5.3,1.3 -0.5,0.1 -0.9,0.2 -1.4,0.1 -0.5,-0.1 -0.9,-0.4 -1.4,-0.6 -0.5,-0.2 -1.1,-0.2 -1.7,-0.2 -2.4,0 -4.9,0 -7.3,0.1 0.4,1 -0.9,1.9 -1.9,1.8 -1,-0.1 -2,-0.7 -3,-0.8 -1.6,-0.1 -3.1,1 -4.4,2 -0.3,-1.3 -1.8,-2 -3.1,-1.8 -1.3,0.2 -2.4,1 -3.5,1.7 -0.1,-0.7 -0.3,-1.4 -0.4,-2.2 -1.9,0 -3.7,0.5 -5.3,1.5 0.6,-1.6 -1.7,-2.9 -3.4,-2.5 -1.7,0.4 -3.2,1.5 -4.9,1.5 -0.8,0 -1.5,-0.3 -2.3,-0.5 -2.5,-0.7 -5.3,-0.2 -7.5,1.1 -1.2,-1.3 -3.6,-1.7 -4.8,-0.3 -0.4,-1.4 -0.8,-2.8 -1.2,-4.2 -2.1,1.6 -5,1.8 -7.6,1.2 -1.7,-0.4 -3.9,-0.8 -4.7,0.7 0,-1.6 -2,-2.5 -3.5,-2 -1.5,0.5 -2.5,1.9 -3.4,3.2 -1.2,-2.6 -6.3,0.7 -7.8,-1.7 -3.2,-0.3 -6.5,-0.1 -9.6,0.7 -1.5,-2.5 -5.6,-2.8 -7.4,-0.5 0.3,-1.5 -1.2,-2.8 -2.7,-3 -1.5,-0.1 -2.9,0.6 -4.2,1.5 -0.1,-1.3 -1.5,-2.1 -2.8,-2.1 -1.3,0 -2.4,0.7 -3.5,1.3 0.3,-1.2 -1.4,-2 -2.7,-1.7 -1.3,0.3 -2.4,1.1 -3.7,0.9 -1.7,-0.3 -2.9,-2.5 -4.7,-2.2 -1.2,0.2 -2.1,1.5 -3.3,1.3 -0.6,-0.1 -1.1,-0.6 -1.6,-0.9 -1.6,-1.1 -4.1,-0.9 -5.5,0.5 -0.7,-2.8 -4.7,-4.1 -6.9,-2.2 -0.4,0.4 -0.8,0.9 -1.4,0.9 -1.2,0.1 -1.6,-1.7 -2.6,-2.4 -1.1,-0.8 -2.7,-0.1 -3.9,0.5 -1.2,0.6 -3.1,0.9 -3.7,-0.3 -0.3,-0.5 -0.2,-1.3 -0.7,-1.7 -0.6,-0.6 -1.6,-0.1 -2.3,0.3 -1.5,0.9 -3,1.9 -4.5,2.8 0.4,-1.3 -1.6,-2.1 -3,-2 -1.4,0.1 -2.7,0.3 -4.1,0.5 0,-2.1 -2.6,-4.1 -4.6,-3.1 -7.1,-2 -14.5,-3.5 -21.9,-4.3 -1.5,-1.8 -4.6,-1.7 -6,0.1 -1.4,-3 -5.4,-4.3 -8.3,-2.7 -0.9,-3.1 -5.7,-4 -7.7,-1.6 -1.1,-3.2 -6.2,-4.1 -8.2,-1.3 0.2,-2.5 -3.7,-4.1 -5.3,-2 -0.9,-2 -4.1,-2.5 -5.5,-0.8 -0.3,-2.3 -3.8,-3.3 -5.3,-1.6 -0.4,-0.6 -0.8,-1.3 -1.2,-1.9 -0.9,0.4 -1.8,0.7 -2.7,1.1 -0.3,-0.5 -0.7,-1 -1,-1.5 -1,0.2 -2,0.4 -3.1,0.6 -0.5,-1.8 -2.3,-3.2 -4.2,-3.1 -1.9,0.1 -3.6,1.8 -3.8,3.7 l 19.5,27.5 c 20.3,2 40.7,3.9 61,5.9 2.2,0.2 4.4,0.4 6.6,0.2 9.6,3.6 20.8,2.3 31.2,3.3 9.2,0.9 18.1,3.7 27.2,5.2 14.3,2.3 28.9,1.2 43.3,0.2 0.4,0 0.7,-0.1 1.1,-0.1 21.4,3.7 43.5,2 65.1,-0.9 3.5,-0.5 7.2,-1 9.9,-3.3 3.3,-2.5 4.5,-7 2.2,-9.6 z"
           style="fill:#b2403d"
           id="path73" /></g><g
         id="g74"><path
           class="st106"
           d="m 266.2,624.2 c -34.8,-4 -98.5,-19.2 -129.9,-27 0.2,13.3 1.1,30.5 1.9,47 33.8,9.3 94.6,19.2 148,25 49.7,5.3 99.6,6 120.7,7.5 -0.3,-18.9 -1,-34.3 -1.8,-45.9 -34.8,0.5 -101.5,-2.3 -138.9,-6.6 z"
           style="fill:#b2403d"
           id="path74" /></g><g
         class="st110"
         style="opacity:0.63"
         id="g75"><path
           class="st106"
           d="m 404.6,687.5 c -0.9,-1 -2.3,-1.6 -3.7,-1.6 -1.8,0.4 -3.5,0.9 -5.3,1.3 -0.5,0.1 -0.9,0.2 -1.4,0.1 -0.5,-0.1 -0.9,-0.4 -1.4,-0.6 -0.5,-0.2 -1.1,-0.2 -1.7,-0.2 -2.4,0 -4.9,0 -7.3,0.1 0.4,1 -0.9,1.9 -1.9,1.8 -1,-0.1 -2,-0.7 -3,-0.8 -1.6,-0.1 -3.1,1 -4.4,2 -0.3,-1.3 -1.8,-2 -3.1,-1.8 -1.3,0.2 -2.4,1 -3.5,1.7 -0.1,-0.7 -0.3,-1.4 -0.4,-2.2 -1.9,0 -3.7,0.5 -5.3,1.5 0.6,-1.6 -1.7,-2.9 -3.4,-2.5 -1.7,0.4 -3.2,1.5 -4.9,1.5 -0.8,0 -1.5,-0.3 -2.3,-0.5 -3,-0.8 -4.8,0.8 -7.5,0.9 -2,0.1 -3.3,-1.4 -5.3,-0.2 0,-0.6 -0.4,-1.2 -1,-1.3 -0.6,-0.1 -1.3,0.2 -1.9,0.4 -0.6,0.2 -1.3,0.4 -1.9,0.2 -0.8,-0.4 -1.1,-1.4 -1.9,-1.8 -1.4,-0.6 -2.9,1.5 -4.4,1.1 -0.6,-0.2 -1,-0.7 -1.4,-1.1 -1,-0.9 -2.4,-1.4 -3.7,-1.1 -1.6,0.3 -2.5,1.4 -3.5,2.4 -1.2,-1.3 -2.5,-0.9 -4.1,-0.8 -1.6,0 -2.7,-0.7 -3.8,-0.8 -3.2,-0.3 -6.5,-0.1 -9.6,0.7 -1.5,-2.5 -5.6,-2.8 -7.4,-0.5 0.3,-1.5 -1.2,-2.8 -2.7,-3 -1.5,-0.1 -2.9,0.6 -4.2,1.5 -0.1,-1.3 -1.5,-2.1 -2.8,-2.1 -1.3,0 -2.4,0.7 -3.5,1.3 0.3,-1.2 -1.4,-2 -2.7,-1.7 -1.3,0.3 -2.4,1.1 -3.7,0.9 -1.7,-0.3 -2.9,-2.5 -4.7,-2.2 -1.2,0.2 -2.1,1.5 -3.3,1.3 -0.6,-0.1 -1.1,-0.6 -1.6,-0.9 -1.6,-1.1 -4.1,-0.9 -5.5,0.5 -0.7,-2.8 -4.7,-4.1 -6.9,-2.2 -0.4,0.4 -0.8,0.9 -1.4,0.9 -1.2,0.1 -1.6,-1.7 -2.6,-2.4 -1.1,-0.8 -2.7,-0.1 -3.9,0.5 -1.2,0.6 -3.1,0.9 -3.7,-0.3 -0.3,-0.5 -0.2,-1.3 -0.7,-1.7 -0.6,-0.6 -1.6,-0.1 -2.3,0.3 -1.5,0.9 -3,1.9 -4.5,2.8 0.4,-1.3 -1.6,-2.1 -3,-2 -1.4,0.1 -2.7,0.3 -4.1,0.5 0,-2.1 -2.6,-4.1 -4.6,-3.1 -7.1,-2 -14.5,-3.5 -21.9,-4.3 -1.5,-1.8 -4.6,-1.7 -6,0.1 -1.4,-3 -5.4,-4.3 -8.3,-2.7 -0.9,-3.1 -5.7,-4 -7.7,-1.6 -1.1,-3.2 -6.2,-4.1 -8.2,-1.3 0.2,-2.5 -3.7,-4.1 -5.3,-2 -0.9,-2 -4.1,-2.5 -5.5,-0.8 -0.3,-2.3 -3.8,-3.3 -5.3,-1.6 -0.4,-0.6 -0.8,-1.3 -1.2,-1.9 -0.9,0.4 -1.8,0.7 -2.7,1.1 -0.3,-0.5 -0.7,-1 -1,-1.5 -1,0.2 -2,0.4 -3.1,0.6 -0.5,-1.8 -2.3,-3.2 -4.2,-3.1 -1.9,0.1 -3.6,1.8 -3.8,3.7 l 19.5,27.5 c 20.3,2 40.7,3.9 61,5.9 2.2,0.2 4.4,0.4 6.6,0.2 9.6,3.6 20.8,2.3 31.2,3.3 9.2,0.9 18.1,3.7 27.2,5.2 14.3,2.3 28.9,1.2 43.3,0.2 0.4,0 0.7,-0.1 1.1,-0.1 21.4,3.7 43.5,2 65.1,-0.9 3.5,-0.5 7.2,-1 9.9,-3.3 3.3,-2.4 4.5,-6.9 2.1,-9.5 z"
           style="fill:#b2403d"
           id="path75" /></g><g
         id="g76"><path
           class="st106"
           d="m 267.2,684 c -34.8,-4 -98.5,-19.2 -129.9,-27 0.2,13.3 0.6,26.9 4.8,34 4.3,7.1 94.7,23.1 148.2,28.8 49.7,5.3 96.5,15.1 117.6,16.6 -0.3,-18.9 -1,-34.3 -1.8,-45.9 -34.8,0.6 -101.5,-2.3 -138.9,-6.5 z"
           style="fill:#b2403d"
           id="path76" /></g><g
         class="st25"
         style="opacity:0.08"
         id="g120"><path
           class="st20"
           d="m 160.9,686.8 c -1.1,1.2 -1.9,2.7 -2.2,4.3 0.7,0 1.5,0.1 2.2,0.1 -0.5,1.1 0.7,2.3 1.9,2.2 1.2,-0.1 2,-1.3 2.2,-2.5 0.2,-1.2 -0.1,-2.3 -0.5,-3.5 -0.2,-0.7 -0.4,-1.4 -1,-1.8 -0.6,-0.4 -1.5,-0.4 -1.8,0.3"
           style="fill:#502e26"
           id="path77" /><path
           class="st20"
           d="m 170.8,689.9 c -1.1,0.7 -1.7,2.1 -1.5,3.4 0.2,-0.5 1,-0.4 1.3,0 0.3,0.4 0.3,1 0.4,1.6 0.1,0.6 0.3,1.1 0.9,1.2 0.4,0.1 0.8,-0.2 1.1,-0.4 1,-0.9 1.3,-2.5 0.9,-3.7 -0.5,-1.3 -1.7,-2.2 -3.1,-2.3"
           style="fill:#502e26"
           id="path78" /><path
           class="st20"
           d="m 186.5,687.4 c -1.2,0.8 -2.1,2.1 -2.5,3.5 1,-0.2 2,0.4 2.3,1.4 0.1,0.3 0.1,0.5 0.2,0.8 0.6,0.8 1.8,0 2.5,-0.7 0.5,-0.5 1.2,-1 1.4,-1.7 0.5,-1.3 -0.7,-2.8 -2.1,-3.2 -1.4,-0.4 -2.8,0 -4.2,0.5"
           style="fill:#502e26"
           id="path79" /><path
           class="st20"
           d="m 192.6,699.3 c -1.5,0.2 -2.9,1.3 -3.3,2.7 0.7,1 2.9,0.2 3.3,1.4 0.1,0.4 0,0.8 0.1,1.2 0.2,0.5 0.9,0.7 1.4,0.6 0.5,-0.2 0.9,-0.6 1.3,-1 0.6,-0.7 1.3,-1.4 1.3,-2.4 0,-1 -0.9,-1.9 -1.9,-2.2 -1,-0.3 -2.1,-0.2 -3.1,-0.1"
           style="fill:#502e26"
           id="path80" /><path
           class="st20"
           d="m 203.8,690.1 c -1.5,0.2 -2.4,2.1 -1.7,3.3 0.8,1.3 2.9,1.3 3.7,0 0.7,-1.2 0.1,-2.6 -0.5,-3.8 -0.3,-0.7 -0.8,-1.4 -1.5,-1.5"
           style="fill:#502e26"
           id="path81" /><path
           class="st20"
           d="m 175.1,679.3 c -1,0.4 -1.9,1.1 -2.5,2 -0.2,0.3 -0.4,0.6 -0.3,0.9 0.1,0.6 0.9,0.8 1.5,0.8 1.5,0 3.1,0 4.4,-0.8 1.3,-0.8 1.8,-2.8 0.7,-3.9 -0.5,-0.4 -1.1,-0.6 -1.8,-0.6 -1.7,0 -3.3,1.3 -3.8,2.9"
           style="fill:#502e26"
           id="path82" /><path
           class="st20"
           d="m 214.7,702 c -1.4,-0.7 -3.1,-0.8 -4.4,-0.1 -1.4,0.7 -2.3,2.3 -1.8,3.8 1.5,-0.2 3,-0.1 4.4,0.3 0.4,0.1 0.7,0.2 1.1,0.2 0.3,0 0.5,-0.1 0.8,-0.3 0.8,-0.5 1.3,-1.7 1,-2.6 -0.3,-0.9 -1.3,-1.7 -2.3,-1.6"
           style="fill:#502e26"
           id="path83" /><path
           class="st20"
           d="m 215.7,681.5 c -0.7,0.7 -1.2,1.6 -1.5,2.5 -0.2,0.5 -0.3,1.2 0,1.7 0.3,0.5 1,0.8 1.4,0.4 0.1,0.6 0.1,1.1 0.2,1.7 1.5,0.1 3,-0.7 3.7,-2 0.2,-0.4 0.4,-0.8 0.4,-1.2 0,-0.9 -0.8,-1.7 -1.7,-2 -0.9,-0.3 -1.8,-0.1 -2.7,0"
           style="fill:#502e26"
           id="path84" /><path
           class="st20"
           d="m 223,691.4 c -1.6,0.5 -3,1.5 -4,2.9 -0.1,0.2 -0.3,0.4 -0.3,0.6 0,0.6 0.9,0.8 1.5,0.7 1.5,-0.2 2.8,-1.1 3.7,-2.2 0.2,-0.2 0.3,-0.4 0.3,-0.7 0,-0.4 -0.2,-0.7 -0.5,-0.9 -1,-0.7 -2.5,-0.4 -3.1,0.6"
           style="fill:#502e26"
           id="path85" /><path
           class="st20"
           d="m 229.2,700.6 c -1.2,1 -2.2,2.3 -2.8,3.7 -0.1,0.2 -0.2,0.4 -0.1,0.6 0.2,0.4 0.8,0.3 1.2,0.4 1,0.1 1.7,1.2 2.7,1.3 0.3,0 0.7,-0.1 1,-0.3 1.2,-0.7 1.8,-2.3 1.3,-3.5 -0.5,-1.3 -2.1,-2 -3.4,-1.4"
           style="fill:#502e26"
           id="path86" /><path
           class="st20"
           d="m 232.2,685.8 c -0.8,1.2 -1.2,2.8 -1,4.2 1.9,0.6 4.1,-0.1 5.3,-1.6 0.2,-0.2 0.3,-0.4 0.3,-0.7 0,-0.5 -0.5,-0.8 -1,-0.9 -1,-0.3 -2,-0.6 -3.1,-0.6"
           style="fill:#502e26"
           id="path87" /><path
           class="st20"
           d="M 241.1,697.4"
           style="fill:#502e26"
           id="path88" /><path
           class="st20"
           d="M 241.1,697.4"
           style="fill:#502e26"
           id="path89" /><path
           class="st20"
           d="m 240.1,698.7 c -0.6,0.9 0.7,2.1 1.7,1.7 1,-0.5 1,-2 0.3,-2.7 -0.8,-0.7 -2,-0.8 -3,-0.3"
           style="fill:#502e26"
           id="path90" /><path
           class="st20"
           d="m 250.1,708.7 c -1,0.8 -2.2,2.1 -1.4,3.2 0.5,0.6 1.4,0.7 2,1 0.5,0.3 1,0.7 1.5,0.9 0.9,0.3 2,-0.3 2.5,-1.1 0.5,-0.8 0.7,-1.8 0.8,-2.8 0.1,-0.6 0.1,-1.2 -0.3,-1.6 -0.3,-0.3 -0.8,-0.4 -1.2,-0.3 -1.2,0.1 -2.4,0.6 -3.3,1.4"
           style="fill:#502e26"
           id="path91" /><path
           class="st20"
           d="m 251.6,694.7 c -1,0.7 -1.8,1.6 -2.4,2.6 -0.2,0.4 -0.4,1.1 0,1.3 0.2,0.2 0.6,0.1 0.8,0.2 0.4,0.2 0.6,0.7 0.8,1 0.6,1 2.1,1 3.1,0.4 1,-0.6 1.5,-1.8 1.8,-2.9 0.1,-0.5 0.2,-1 0,-1.4 -0.2,-0.3 -0.5,-0.4 -0.8,-0.5 -1.3,-0.5 -2.7,-0.8 -4,-0.7"
           style="fill:#502e26"
           id="path92" /><path
           class="st20"
           d="m 258.7,689.4 c -0.9,0.1 -1.1,1.4 -0.6,2.1 0.6,0.7 1.5,0.9 2.4,0.9 0.4,0 0.9,0 1.3,-0.1 1.3,-0.4 1.9,-2.1 1.2,-3.2 -0.7,-1.1 -2.5,-1.3 -3.4,-0.3"
           style="fill:#502e26"
           id="path93" /><path
           class="st20"
           d="m 266.4,700.3 c -1.9,0.2 -3.6,1.5 -4.3,3.2 0.4,-0.2 0.7,0.5 0.6,0.9 -0.1,0.4 -0.4,1 0,1.3 0.2,0.1 0.4,0.1 0.6,0.1 2.7,0 5.6,-1.5 6.4,-4.1 0.1,-0.3 0.1,-0.6 0.1,-0.8 -0.1,-0.6 -0.7,-0.9 -1.3,-1 -0.6,-0.1 -1.2,0.1 -1.7,0.3"
           style="fill:#502e26"
           id="path94" /><path
           class="st20"
           d="m 271,712.6 c -1.8,0.4 -3.4,1.3 -4.8,2.5 0.2,0.7 0.4,1.4 0.8,2 0.4,0.6 1.1,1 1.8,0.9 0.5,-0.1 0.9,-0.3 1.3,-0.5 1.2,-0.5 2.7,-0.4 3.5,-1.5 0.4,-0.6 0.4,-1.5 -0.1,-2.1 -0.5,-0.6 -1.4,-0.8 -2.1,-0.4"
           style="fill:#502e26"
           id="path95" /><path
           class="st20"
           d="m 275.3,704 c -0.4,0.4 -0.8,0.7 -1.1,1.2 -0.2,0.5 -0.3,1.1 0.1,1.5 0.3,0.3 0.8,0.4 1.3,0.5 1.1,0.2 2.3,0.3 3,-0.6 0.6,-0.8 0.3,-2 -0.5,-2.6 -0.8,-0.6 -1.9,-0.6 -2.8,-0.3"
           style="fill:#502e26"
           id="path96" /><path
           class="st20"
           d="m 279,692.5 c -0.9,0.6 -1.7,1.5 -2.1,2.5 -0.1,0.2 -0.2,0.5 -0.1,0.7 0.3,0.6 1.2,0.1 1.8,0.4 0.7,0.3 0.4,1.5 0.8,2.1 0.6,0.8 1.8,0.4 2.7,-0.1 0.6,-0.4 1.3,-0.8 1.9,-1.1 0.4,-0.3 0.9,-0.6 1.1,-1.1 0.2,-0.6 -0.3,-1.3 -0.7,-1.8 -1.2,-1.1 -2.8,-1.9 -4.4,-2"
           style="fill:#502e26"
           id="path97" /><path
           class="st20"
           d="m 291.4,705.6 c -0.9,0.2 -1.7,0.6 -2.5,1.1 -0.2,0.1 -0.4,0.3 -0.5,0.5 -0.2,0.5 0.2,1.1 0.6,1.4 2,1.7 5.5,1.3 7.1,-0.9 0.2,-0.3 0.3,-0.6 0.2,-0.9 -0.1,-0.2 -0.2,-0.3 -0.4,-0.4 -1.6,-1.1 -3.8,-1.3 -5.5,-0.4"
           style="fill:#502e26"
           id="path98" /><path
           class="st20"
           d="m 282.5,716.8 c -0.2,0.3 -0.5,0.5 -0.7,0.8 1.4,0.3 1.6,2.3 2.8,3.1 0.4,0.2 0.8,0.3 1.2,0.3 1.3,-0.2 2,-1.9 1.4,-3.1 -0.6,-1.2 -2.2,-1.7 -3.4,-1.3"
           style="fill:#502e26"
           id="path99" /><path
           class="st20"
           d="m 300.5,695.1 c -0.9,0.6 -1.5,1.5 -1.8,2.5 0,0.1 -0.1,0.3 0,0.4 0.1,0.2 0.3,0.3 0.6,0.3 0.9,0.1 1.8,-0.2 2.6,0.2 0.7,0.3 1.1,1 1.8,1.3 0.9,0.3 1.8,-0.4 2,-1.3 0.2,-0.9 -0.2,-1.8 -0.8,-2.5 -0.6,-0.7 -1.4,-1.1 -2.2,-1.5 -0.7,-0.3 -1.9,-0.4 -1.9,0.3"
           style="fill:#502e26"
           id="path100" /><path
           class="st20"
           d="m 305.1,707.2 c -0.4,0.9 0.3,2 1.2,2.2 0.4,0.1 0.9,0 1.3,0.1 0.9,0.2 1.4,1.1 2.3,1.3 1,0.3 2,-0.3 2.7,-1 0.4,-0.5 0.8,-1 0.9,-1.6 0.2,-1.1 -0.5,-2.2 -1.3,-3 -0.8,-0.8 -1.7,-1.4 -2.8,-1.6 -1.1,-0.2 -2.3,0.1 -3,0.9"
           style="fill:#502e26"
           id="path101" /><path
           class="st20"
           d="m 301.1,716.1 c -1.4,0.7 -2.5,2 -2.9,3.6 0.4,-0.2 0.9,0.3 1.1,0.7 0.1,0.5 0.2,1.1 0.7,1.3 0.7,0.4 1.6,-0.6 2.4,-0.3 0.3,0.1 0.5,0.3 0.8,0.5 0.6,0.3 1.3,-0.1 1.7,-0.7 0.4,-0.6 0.4,-1.2 0.5,-1.9 0,-0.4 0,-0.7 -0.2,-1 -0.2,-0.2 -0.4,-0.3 -0.7,-0.3 -1.1,-0.3 -2.3,-0.7 -3.4,-1"
           style="fill:#502e26"
           id="path102" /><path
           class="st20"
           d="m 310.9,715 c -0.1,0.5 -0.6,0.9 -0.8,1.4 -0.2,0.5 -0.1,1.3 0.5,1.3 0.2,0 0.4,-0.1 0.6,-0.1 0.5,-0.1 0.8,0.4 1.2,0.6 0.9,0.6 2.3,0.1 2.7,-0.9 0.4,-1 -0.1,-2.3 -1.1,-2.8 -1,-0.5 -2.3,-0.2 -3,0.5"
           style="fill:#502e26"
           id="path103" /><path
           class="st20"
           d="m 322.3,718.7 c -1.6,1.6 -2.8,3.7 -3.4,5.9 -0.1,0.4 -0.1,0.9 0.2,1 0.3,0.1 0.7,-0.1 1,0 0.5,0.1 0.5,0.8 0.7,1.3 0.4,1.1 1.8,1.4 3,1.6 1.1,0.1 2.3,0.2 3.4,0.4 0.4,0 0.8,0.1 1.1,-0.1 0.5,-0.3 0.6,-1 0.6,-1.6 -0.2,-1.8 -1.4,-3.5 -3.1,-4.3 -0.8,-0.4 -1.9,-0.7 -1.9,-1.6 0,-0.3 0.1,-0.6 0.1,-0.9 -0.1,-0.9 -1.4,-1 -2.3,-0.8"
           style="fill:#502e26"
           id="path104" /><path
           class="st20"
           d="m 319.6,697.2 c -0.4,0.8 -0.8,1.6 -1.1,2.4 -0.1,0.2 -0.2,0.5 -0.2,0.7 0.1,0.8 1.3,0.8 2.1,1.2 1,0.6 1.3,2.2 2.4,2.5 0.8,0.2 1.6,-0.6 2.1,-1.3 0.6,-0.7 1.2,-1.5 1.5,-2.3 0.3,-0.8 0.4,-1.9 -0.2,-2.7 -0.3,-0.5 -0.9,-0.9 -1.4,-1.2 -0.9,-0.6 -1.9,-1.1 -3,-1 -1.1,0.1 -2.1,1.1 -1.8,2.2"
           style="fill:#502e26"
           id="path105" /><path
           class="st20"
           d="m 321.9,711.1 c -0.3,-0.8 0.3,-1.7 1.1,-2 0.8,-0.3 1.7,0 2.4,0.3 0.6,0.3 1.3,0.7 1.6,1.3 -0.9,0.7 -2,1.3 -3,1.8"
           style="fill:#502e26"
           id="path106" /><path
           class="st20"
           d="m 331.4,714.3 c -0.8,0.8 -1.7,2 -1,2.9 0.2,0.2 0.5,0.4 0.7,0.6 0.8,0.8 0.7,2.1 1.4,3 0.7,0.8 1.8,1 2.8,0.9 0.6,0 1.3,-0.2 1.7,-0.7 0.6,-0.7 0.4,-1.8 0,-2.6 -1,-2 -3,-3.4 -5.1,-3.7"
           style="fill:#502e26"
           id="path107" /><path
           class="st20"
           d="m 338.2,704.7 c -0.8,0.5 -1.6,1.3 -1.2,2.1 0.1,0.3 0.4,0.4 0.7,0.6 0.8,0.7 1.1,1.9 0.7,2.9 1.2,-0.1 2.5,-0.2 3.7,-0.3 0.8,-1.4 1.4,-2.8 1.7,-4.3 0.1,-0.3 0.1,-0.6 0,-0.9 -0.1,-0.3 -0.4,-0.5 -0.6,-0.6 -1.2,-0.7 -2.9,-0.7 -4.1,0.2"
           style="fill:#502e26"
           id="path108" /><path
           class="st20"
           d="m 347.4,714.1 c -0.7,0.8 -1.2,1.7 -1.6,2.6 -0.1,0.2 -0.1,0.3 -0.1,0.5 0.1,0.7 1.4,0.3 1.8,0.9 0.2,0.4 0,0.8 0.1,1.2 0.2,0.6 0.9,0.7 1.5,0.5 0.6,-0.2 1.1,-0.5 1.7,-0.5 0.4,0 0.8,0.2 1.2,0.1 0.7,-0.1 1.1,-0.8 1.1,-1.5 0.1,-1.3 -0.9,-2.4 -2.1,-2.9 -1.2,-0.5 -2.5,-0.4 -3.7,-0.4"
           style="fill:#502e26"
           id="path109" /><path
           class="st20"
           d="m 352.3,703.7 c -0.7,0.9 -1.1,2.1 -1.2,3.2 1,0.7 1.2,2.2 0.6,3.2 0.9,-0.2 1.7,-0.4 2.6,-0.6 0.3,-0.1 0.7,-0.2 1,-0.3 1.6,-0.7 2.4,-2.8 1.6,-4.4 -0.8,-1.6 -3,-2.2 -4.5,-1.4"
           style="fill:#502e26"
           id="path110" /><path
           class="st20"
           d="m 344.2,727.1 c -0.2,0.4 -0.4,0.8 -0.6,1.3 -0.2,0.5 -0.4,1.1 -0.1,1.5 0.7,0.8 2.5,-0.6 2.9,0.3 0.1,0.2 0,0.5 0.2,0.7 0.3,0.4 1,0 1.3,-0.4 0.7,-1 1.1,-2.3 1.2,-3.5 0,-0.3 0,-0.6 -0.1,-0.8 -0.2,-0.3 -0.5,-0.4 -0.8,-0.5 -0.8,-0.3 -1.6,-0.6 -2.4,-0.4 -0.8,0.2 -1.4,1.2 -1,1.8"
           style="fill:#502e26"
           id="path111" /><path
           class="st20"
           d="m 359.3,722.3 c -0.9,0.4 -1.4,1.5 -1.1,2.5 0.3,-0.4 1,-0.1 1.3,0.3 0.3,0.5 0.4,1 0.9,1.3 0.6,0.4 1.4,0 1.9,-0.4 1.7,-1.3 2.9,-3.2 3.2,-5.3 0,-0.2 0.1,-0.4 0,-0.5 -0.1,-0.2 -0.4,-0.3 -0.6,-0.3 -1.8,-0.2 -3.7,0.4 -5.1,1.7"
           style="fill:#502e26"
           id="path112" /><path
           class="st20"
           d="m 367.4,706.1 c -1.5,-0.1 -2.5,1.8 -2.2,3.3 0.3,1.5 1.5,2.6 2.6,3.7 0.2,0.2 0.4,0.3 0.6,0.4 0.3,0.1 0.6,0 0.8,-0.1 0.9,-0.3 1.8,-0.7 2.8,-1 0.4,-0.1 0.8,-0.3 1.1,-0.5 1,-0.7 1.3,-2.1 1.4,-3.4 0.1,-0.4 0.1,-0.8 -0.1,-1.1 -0.2,-0.4 -0.6,-0.6 -1,-0.8 -1.9,-0.8 -4,-1.2 -6.1,-1.1"
           style="fill:#502e26"
           id="path113" /><path
           class="st20"
           d="m 371.5,718.3 c -0.3,1.5 0.8,2.9 1.9,4.1 0.3,0.3 0.5,0.6 0.9,0.7 1,0.4 2,-0.6 2.5,-1.5 0.8,-1.4 1.3,-2.9 1.5,-4.4 0,-0.2 0.1,-0.5 -0.1,-0.7 -0.1,-0.2 -0.4,-0.3 -0.6,-0.3 -1.8,-0.4 -4,-0.7 -5.4,0.6"
           style="fill:#502e26"
           id="path114" /><path
           class="st20"
           d="m 379.1,729.7 c -0.6,0.5 -1,1.2 -1.3,1.9 -0.1,0.2 -0.2,0.4 -0.1,0.6 0.1,0.2 0.3,0.2 0.5,0.3 0.8,0.4 1,1.4 1.6,2 0.9,0.9 2.3,0.8 3.5,0.6 0.9,-0.2 1.8,-0.4 2.6,-0.8 0.8,-0.5 1.4,-1.3 1.5,-2.2 0,-1.1 -0.8,-2.1 -1.9,-2.5 -1.1,-0.3 -2.2,-0.1 -3.2,0.4"
           style="fill:#502e26"
           id="path115" /><path
           class="st20"
           d="m 364.9,732.4 c -0.4,0.5 -0.9,1 -1.1,1.6 -0.2,0.6 -0.1,1.4 0.4,1.8 0.2,0.2 0.6,0.3 0.9,0.4 1.4,0.4 2.9,0.4 4.1,-0.4 1.2,-0.8 1.7,-2.6 0.7,-3.7 -0.6,-0.7 -1.6,-0.9 -2.5,-0.8 -0.9,0.1 -1.7,0.7 -2.5,1.2"
           style="fill:#502e26"
           id="path116" /><path
           class="st20"
           d="m 386,711.4 c -1.1,0.4 -1.6,1.8 -1.4,2.9 0.2,1.1 0.8,2.1 1.5,3.1 0.4,0.6 0.8,1.1 1.5,1.3 0.8,0.2 1.5,-0.4 2.3,-0.6 0.5,-0.1 1.1,0 1.6,-0.1 1.8,-0.4 2.4,-2.8 1.5,-4.4 -0.9,-1.5 -2.7,-2.3 -4.5,-2.7 -0.2,0 -0.4,-0.1 -0.6,0 -0.1,0.1 -0.2,0.2 -0.2,0.4 -0.2,0.6 -0.4,1.1 -0.6,1.7"
           style="fill:#502e26"
           id="path117" /><path
           class="st20"
           d="m 393.4,722 c -0.6,0.5 -1,1.1 -1.2,1.9 0.7,-0.2 1.6,0.3 1.9,1 0.1,0.3 0.1,0.5 0.3,0.7 0.1,0.2 0.4,0.4 0.6,0.4 1.5,0.5 3.3,-0.7 3.4,-2.2 0,-0.3 0,-0.6 -0.2,-0.8 -0.2,-0.3 -0.5,-0.4 -0.9,-0.5 -0.9,-0.3 -1.9,-0.3 -2.9,-0.2"
           style="fill:#502e26"
           id="path118" /><path
           class="st20"
           d="m 398.7,709.9 c -0.7,0.7 -1.5,1.9 -0.8,2.7 0.4,0.5 1.3,0.8 1.3,1.4 0,0.2 -0.1,0.4 -0.1,0.7 0.1,0.5 0.8,0.6 1.3,0.5 1.1,-0.2 2.2,-0.4 3.2,-0.9 1,-0.6 1.7,-1.6 1.6,-2.7 -0.1,-1.3 -1.3,-2.3 -2.6,-2.5 -1.3,-0.2 -2.6,0.3 -3.7,0.9"
           style="fill:#502e26"
           id="path119" /><path
           class="st20"
           d="m 397.9,730.9 c -0.2,0.6 -0.7,1 -1,1.5 -0.3,0.5 -0.5,1.2 -0.1,1.7 0.2,0.3 0.6,0.5 0.8,0.8 0.5,0.6 0.2,1.7 0.9,2.1 0.3,0.2 0.7,0.1 1,0.1 1.4,-0.3 2.8,-0.9 3.9,-1.7 0.5,-0.4 1,-0.8 1.3,-1.4 0.6,-1.4 -0.4,-3.2 -1.8,-3.7 -1.4,-0.5 -3.1,-0.3 -4.5,0.2"
           style="fill:#502e26"
           id="path120" /></g><g
         class="st25"
         style="opacity:0.08"
         id="g164"><path
           class="st26"
           d="m 155.3,685.2 c -1.1,1.2 -1.9,2.7 -2.2,4.3 0.7,0 1.5,0.1 2.2,0.1 -0.5,1.1 0.7,2.3 1.9,2.2 1.2,-0.1 2,-1.3 2.2,-2.5 0.2,-1.2 -0.1,-2.3 -0.5,-3.5 -0.2,-0.7 -0.4,-1.4 -1,-1.8 -0.6,-0.4 -1.5,-0.4 -1.8,0.3"
           style="fill:#f08677"
           id="path121" /><path
           class="st26"
           d="m 165.3,688.3 c -1.1,0.7 -1.7,2.1 -1.5,3.4 0.2,-0.5 1,-0.4 1.3,0 0.3,0.4 0.3,1 0.4,1.6 0.1,0.6 0.3,1.1 0.9,1.2 0.4,0.1 0.8,-0.2 1.1,-0.4 1,-0.9 1.3,-2.5 0.9,-3.7 -0.5,-1.3 -1.7,-2.2 -3.1,-2.3"
           style="fill:#f08677"
           id="path122" /><path
           class="st26"
           d="m 181,685.8 c -1.2,0.8 -2.1,2.1 -2.5,3.5 1,-0.2 2,0.4 2.3,1.4 0.1,0.3 0.1,0.5 0.2,0.8 0.6,0.8 1.8,0 2.5,-0.7 0.5,-0.5 1.2,-1 1.4,-1.7 0.5,-1.3 -0.7,-2.8 -2.1,-3.2 -1.4,-0.4 -2.8,0 -4.2,0.5"
           style="fill:#f08677"
           id="path123" /><path
           class="st26"
           d="m 187,697.7 c -1.5,0.2 -2.9,1.3 -3.3,2.7 0.7,1 2.9,0.2 3.3,1.4 0.1,0.4 0,0.8 0.1,1.2 0.2,0.5 0.9,0.7 1.4,0.6 0.5,-0.1 0.9,-0.6 1.3,-1 0.6,-0.7 1.3,-1.4 1.3,-2.4 0,-1 -0.9,-1.9 -1.9,-2.2 -1,-0.3 -2.1,-0.2 -3.1,-0.1"
           style="fill:#f08677"
           id="path124" /><path
           class="st26"
           d="m 198.3,688.5 c -1.5,0.2 -2.4,2.1 -1.7,3.3 0.8,1.3 2.9,1.3 3.7,0 0.7,-1.2 0.1,-2.6 -0.5,-3.8 -0.3,-0.7 -0.8,-1.4 -1.5,-1.5"
           style="fill:#f08677"
           id="path125" /><path
           class="st26"
           d="m 169.6,677.6 c -1,0.4 -1.9,1.1 -2.5,2 -0.2,0.3 -0.4,0.6 -0.3,0.9 0.1,0.6 0.9,0.8 1.5,0.8 1.5,0 3.1,0 4.4,-0.8 1.3,-0.8 1.8,-2.8 0.7,-3.9 -0.5,-0.4 -1.1,-0.6 -1.8,-0.6 -1.7,0 -3.3,1.3 -3.8,2.9"
           style="fill:#f08677"
           id="path126" /><path
           class="st26"
           d="m 209.2,700.3 c -1.4,-0.7 -3.1,-0.8 -4.4,-0.1 -1.3,0.7 -2.3,2.3 -1.8,3.8 1.5,-0.2 3,-0.1 4.4,0.3 0.4,0.1 0.7,0.2 1.1,0.2 0.3,0 0.5,-0.1 0.8,-0.3 0.8,-0.5 1.3,-1.7 1,-2.6 -0.3,-1 -1.3,-1.7 -2.3,-1.6"
           style="fill:#f08677"
           id="path127" /><path
           class="st26"
           d="m 210.1,679.9 c -0.7,0.7 -1.2,1.6 -1.5,2.5 -0.2,0.5 -0.3,1.2 0,1.7 0.3,0.5 1,0.8 1.4,0.4 0.1,0.6 0.1,1.1 0.2,1.7 1.5,0.1 3,-0.7 3.7,-2 0.2,-0.4 0.4,-0.8 0.4,-1.2 0,-0.9 -0.8,-1.7 -1.7,-2 -0.9,-0.3 -1.8,-0.1 -2.7,0"
           style="fill:#f08677"
           id="path128" /><path
           class="st26"
           d="m 217.4,689.8 c -1.6,0.5 -3,1.5 -4,2.9 -0.1,0.2 -0.3,0.4 -0.3,0.6 0,0.6 0.9,0.8 1.5,0.7 1.5,-0.2 2.8,-1.1 3.7,-2.2 0.2,-0.2 0.3,-0.4 0.3,-0.7 0,-0.4 -0.2,-0.7 -0.5,-0.9 -1,-0.7 -2.5,-0.4 -3.1,0.6"
           style="fill:#f08677"
           id="path129" /><path
           class="st26"
           d="m 223.6,699 c -1.2,1 -2.2,2.3 -2.8,3.7 -0.1,0.2 -0.2,0.4 -0.1,0.6 0.2,0.4 0.8,0.3 1.2,0.4 1,0.1 1.7,1.2 2.7,1.3 0.3,0 0.7,-0.1 1,-0.3 1.2,-0.7 1.8,-2.3 1.3,-3.5 -0.5,-1.3 -2.1,-2 -3.4,-1.4"
           style="fill:#f08677"
           id="path130" /><path
           class="st26"
           d="m 226.7,684.2 c -0.8,1.2 -1.2,2.8 -1,4.2 1.9,0.6 4.1,-0.1 5.3,-1.6 0.2,-0.2 0.3,-0.4 0.3,-0.7 0,-0.5 -0.5,-0.8 -1,-0.9 -1,-0.3 -2,-0.6 -3.1,-0.6"
           style="fill:#f08677"
           id="path131" /><path
           class="st26"
           d="M 235.6,695.8"
           style="fill:#f08677"
           id="path132" /><path
           class="st26"
           d="M 235.6,695.8"
           style="fill:#f08677"
           id="path133" /><path
           class="st26"
           d="m 234.5,697 c -0.6,0.9 0.7,2.1 1.7,1.7 1,-0.4 1,-2 0.3,-2.7 -0.7,-0.7 -2,-0.8 -3,-0.3"
           style="fill:#f08677"
           id="path134" /><path
           class="st26"
           d="m 244.5,707.1 c -1,0.8 -2.2,2.1 -1.4,3.2 0.5,0.6 1.4,0.7 2,1 0.5,0.3 1,0.7 1.5,0.9 0.9,0.3 2,-0.3 2.5,-1.1 0.5,-0.8 0.7,-1.8 0.8,-2.8 0.1,-0.6 0.1,-1.2 -0.3,-1.6 -0.3,-0.3 -0.8,-0.4 -1.2,-0.3 -1.2,0.1 -2.4,0.6 -3.3,1.4"
           style="fill:#f08677"
           id="path135" /><path
           class="st26"
           d="m 246.1,693.1 c -1,0.7 -1.8,1.6 -2.4,2.6 -0.2,0.4 -0.4,1.1 0,1.3 0.2,0.2 0.6,0.1 0.8,0.2 0.4,0.2 0.6,0.7 0.8,1 0.6,1 2.1,1 3.1,0.4 1,-0.6 1.5,-1.8 1.8,-2.9 0.1,-0.5 0.2,-1 0,-1.4 -0.2,-0.3 -0.5,-0.4 -0.8,-0.5 -1.3,-0.5 -2.7,-0.8 -4,-0.7"
           style="fill:#f08677"
           id="path136" /><path
           class="st26"
           d="m 253.1,687.8 c -0.9,0.1 -1.1,1.4 -0.6,2.1 0.6,0.7 1.5,0.9 2.4,0.9 0.4,0 0.9,0 1.3,-0.1 1.3,-0.4 1.9,-2.1 1.2,-3.2 -0.7,-1.1 -2.5,-1.3 -3.4,-0.3"
           style="fill:#f08677"
           id="path137" /><path
           class="st26"
           d="m 260.8,698.7 c -1.9,0.2 -3.6,1.5 -4.3,3.2 0.4,-0.2 0.7,0.5 0.6,0.9 -0.1,0.4 -0.4,1 0,1.3 0.2,0.1 0.4,0.1 0.6,0.1 2.7,0 5.6,-1.5 6.4,-4.1 0.1,-0.3 0.1,-0.6 0.1,-0.8 -0.1,-0.6 -0.7,-0.9 -1.3,-1 -0.6,-0.1 -1.2,0.1 -1.7,0.3"
           style="fill:#f08677"
           id="path138" /><path
           class="st26"
           d="m 265.5,711 c -1.8,0.4 -3.4,1.3 -4.8,2.5 0.2,0.7 0.4,1.4 0.8,2 0.4,0.6 1.1,1 1.8,0.9 0.5,-0.1 0.9,-0.3 1.3,-0.5 1.2,-0.5 2.7,-0.4 3.5,-1.5 0.4,-0.6 0.4,-1.5 -0.1,-2.1 -0.5,-0.6 -1.4,-0.8 -2.1,-0.4"
           style="fill:#f08677"
           id="path139" /><path
           class="st26"
           d="m 269.8,702.3 c -0.4,0.4 -0.8,0.7 -1.1,1.2 -0.2,0.5 -0.3,1.1 0.1,1.5 0.3,0.3 0.8,0.4 1.3,0.5 1.1,0.2 2.3,0.3 3,-0.6 0.6,-0.8 0.3,-2 -0.5,-2.6 -0.8,-0.6 -1.9,-0.6 -2.8,-0.3"
           style="fill:#f08677"
           id="path140" /><path
           class="st26"
           d="m 273.5,690.9 c -0.9,0.6 -1.7,1.5 -2.1,2.5 -0.1,0.2 -0.2,0.5 -0.1,0.7 0.3,0.6 1.2,0.1 1.8,0.4 0.7,0.3 0.4,1.5 0.8,2.1 0.6,0.8 1.8,0.4 2.7,-0.1 0.6,-0.4 1.3,-0.8 1.9,-1.1 0.4,-0.3 0.9,-0.6 1.1,-1.1 0.2,-0.6 -0.3,-1.3 -0.7,-1.8 -1.2,-1.1 -2.8,-1.9 -4.4,-2"
           style="fill:#f08677"
           id="path141" /><path
           class="st26"
           d="m 285.8,704 c -0.9,0.2 -1.7,0.6 -2.5,1.1 -0.2,0.1 -0.4,0.3 -0.5,0.5 -0.2,0.5 0.2,1.1 0.6,1.4 2,1.7 5.5,1.3 7.1,-0.9 0.2,-0.3 0.3,-0.6 0.2,-0.9 -0.1,-0.2 -0.2,-0.3 -0.4,-0.4 -1.6,-1.1 -3.8,-1.3 -5.5,-0.4"
           style="fill:#f08677"
           id="path142" /><path
           class="st26"
           d="m 276.9,715.1 c -0.2,0.3 -0.5,0.5 -0.7,0.8 1.4,0.3 1.6,2.3 2.8,3.1 0.4,0.2 0.8,0.3 1.2,0.3 1.3,-0.2 2,-1.9 1.4,-3.1 -0.6,-1.2 -2.2,-1.7 -3.4,-1.3"
           style="fill:#f08677"
           id="path143" /><path
           class="st26"
           d="m 294.9,693.5 c -0.9,0.6 -1.5,1.5 -1.8,2.5 0,0.1 -0.1,0.3 0,0.4 0.1,0.2 0.3,0.3 0.6,0.3 0.9,0.1 1.8,-0.2 2.6,0.2 0.7,0.3 1.1,1 1.8,1.3 0.9,0.3 1.8,-0.4 2,-1.3 0.2,-0.9 -0.2,-1.8 -0.8,-2.5 -0.6,-0.7 -1.4,-1.1 -2.2,-1.5 -0.7,-0.3 -1.9,-0.4 -1.9,0.3"
           style="fill:#f08677"
           id="path144" /><path
           class="st26"
           d="m 299.6,705.5 c -0.4,0.9 0.3,2 1.2,2.2 0.4,0.1 0.9,0 1.3,0.1 0.9,0.2 1.4,1.1 2.3,1.3 1,0.3 2,-0.3 2.7,-1 0.4,-0.5 0.8,-1 0.9,-1.6 0.2,-1.1 -0.5,-2.2 -1.3,-3 -0.8,-0.8 -1.7,-1.4 -2.8,-1.6 -1.1,-0.2 -2.3,0.1 -3,0.9"
           style="fill:#f08677"
           id="path145" /><path
           class="st26"
           d="m 295.5,714.4 c -1.4,0.7 -2.5,2 -2.9,3.6 0.4,-0.2 0.9,0.3 1.1,0.7 0.1,0.5 0.2,1.1 0.7,1.3 0.7,0.4 1.6,-0.6 2.4,-0.3 0.3,0.1 0.5,0.3 0.8,0.5 0.6,0.3 1.3,-0.1 1.7,-0.7 0.3,-0.6 0.4,-1.2 0.5,-1.9 0,-0.4 0,-0.7 -0.2,-1 -0.2,-0.2 -0.4,-0.3 -0.7,-0.3 -1.1,-0.3 -2.3,-0.7 -3.4,-1"
           style="fill:#f08677"
           id="path146" /><path
           class="st26"
           d="m 305.4,713.4 c -0.1,0.5 -0.6,0.9 -0.8,1.4 -0.2,0.5 -0.1,1.3 0.5,1.3 0.2,0 0.4,-0.1 0.6,-0.1 0.5,-0.1 0.8,0.4 1.2,0.6 0.9,0.6 2.3,0.1 2.7,-0.9 0.4,-1 -0.1,-2.3 -1.1,-2.8 -1,-0.5 -2.3,-0.2 -3,0.5"
           style="fill:#f08677"
           id="path147" /><path
           class="st26"
           d="m 316.8,717.1 c -1.6,1.6 -2.8,3.7 -3.4,5.9 -0.1,0.4 -0.1,0.9 0.2,1 0.3,0.1 0.7,-0.1 1,0 0.5,0.1 0.5,0.8 0.7,1.3 0.4,1.1 1.8,1.4 3,1.6 1.1,0.1 2.3,0.2 3.4,0.4 0.4,0 0.8,0.1 1.1,-0.1 0.5,-0.3 0.6,-1 0.6,-1.6 -0.2,-1.8 -1.4,-3.5 -3.1,-4.3 -0.8,-0.4 -1.9,-0.7 -1.9,-1.6 0,-0.3 0.1,-0.6 0.1,-0.9 -0.1,-0.9 -1.4,-1 -2.3,-0.8"
           style="fill:#f08677"
           id="path148" /><path
           class="st26"
           d="m 314.1,695.6 c -0.4,0.8 -0.8,1.6 -1.1,2.4 -0.1,0.2 -0.2,0.5 -0.2,0.7 0.1,0.8 1.3,0.8 2.1,1.2 1,0.6 1.3,2.2 2.4,2.5 0.8,0.2 1.6,-0.6 2.1,-1.3 0.6,-0.7 1.2,-1.5 1.5,-2.3 0.3,-0.8 0.4,-1.9 -0.2,-2.7 -0.3,-0.5 -0.9,-0.9 -1.4,-1.2 -0.9,-0.6 -1.9,-1.1 -3,-1 -1.1,0.1 -2.1,1.1 -1.8,2.2"
           style="fill:#f08677"
           id="path149" /><path
           class="st26"
           d="m 316.4,709.4 c -0.3,-0.8 0.3,-1.7 1.1,-2 0.8,-0.3 1.7,0 2.4,0.3 0.6,0.3 1.3,0.7 1.6,1.3 -0.9,0.7 -2,1.3 -3,1.8"
           style="fill:#f08677"
           id="path150" /><path
           class="st26"
           d="m 325.9,712.6 c -0.8,0.8 -1.7,2 -1,2.9 0.2,0.2 0.5,0.4 0.7,0.6 0.8,0.8 0.7,2.1 1.4,3 0.7,0.8 1.8,1 2.8,0.9 0.6,0 1.3,-0.2 1.7,-0.7 0.6,-0.7 0.4,-1.8 0,-2.6 -1,-2 -3,-3.4 -5.1,-3.7"
           style="fill:#f08677"
           id="path151" /><path
           class="st26"
           d="m 332.7,703.1 c -0.8,0.5 -1.6,1.3 -1.2,2.1 0.1,0.3 0.4,0.4 0.7,0.6 0.8,0.7 1.1,1.9 0.7,2.9 1.2,-0.1 2.5,-0.2 3.7,-0.3 0.8,-1.4 1.4,-2.8 1.7,-4.3 0.1,-0.3 0.1,-0.6 0,-0.9 -0.1,-0.3 -0.4,-0.5 -0.6,-0.6 -1.2,-0.7 -2.9,-0.7 -4.1,0.2"
           style="fill:#f08677"
           id="path152" /><path
           class="st26"
           d="m 341.8,712.4 c -0.7,0.8 -1.2,1.7 -1.6,2.6 -0.1,0.2 -0.1,0.3 -0.1,0.5 0.1,0.7 1.4,0.3 1.8,0.9 0.2,0.4 0,0.8 0.1,1.2 0.2,0.6 0.9,0.7 1.5,0.5 0.6,-0.2 1.1,-0.5 1.7,-0.5 0.4,0 0.8,0.2 1.2,0.1 0.7,-0.1 1.1,-0.8 1.1,-1.5 0.1,-1.3 -0.9,-2.4 -2.1,-2.9 -1.2,-0.5 -2.5,-0.4 -3.7,-0.4"
           style="fill:#f08677"
           id="path153" /><path
           class="st26"
           d="m 346.8,702 c -0.7,0.9 -1.1,2.1 -1.2,3.2 1,0.7 1.2,2.2 0.6,3.2 0.9,-0.2 1.7,-0.4 2.6,-0.6 0.3,-0.1 0.7,-0.2 1,-0.3 1.6,-0.7 2.4,-2.8 1.6,-4.4 -0.8,-1.6 -3,-2.2 -4.5,-1.4"
           style="fill:#f08677"
           id="path154" /><path
           class="st26"
           d="m 338.7,725.5 c -0.2,0.4 -0.4,0.8 -0.6,1.3 -0.2,0.5 -0.4,1.1 -0.1,1.5 0.7,0.8 2.5,-0.6 2.9,0.3 0.1,0.2 0,0.5 0.2,0.7 0.3,0.4 1,0 1.3,-0.4 0.7,-1 1.1,-2.3 1.2,-3.5 0,-0.3 0,-0.6 -0.1,-0.8 -0.2,-0.3 -0.5,-0.4 -0.8,-0.5 -0.8,-0.3 -1.6,-0.6 -2.4,-0.4 -0.8,0.2 -1.4,1.2 -1,1.8"
           style="fill:#f08677"
           id="path155" /><path
           class="st26"
           d="m 353.7,720.6 c -0.9,0.4 -1.4,1.5 -1.1,2.5 0.3,-0.4 1,-0.1 1.3,0.3 0.3,0.5 0.4,1 0.9,1.3 0.6,0.4 1.4,0 1.9,-0.4 1.7,-1.3 2.9,-3.2 3.2,-5.3 0,-0.2 0.1,-0.4 0,-0.5 -0.1,-0.2 -0.4,-0.3 -0.6,-0.3 -1.8,-0.2 -3.7,0.4 -5.1,1.7"
           style="fill:#f08677"
           id="path156" /><path
           class="st26"
           d="m 361.9,704.5 c -1.5,-0.1 -2.5,1.8 -2.2,3.3 0.3,1.5 1.5,2.6 2.6,3.7 0.2,0.2 0.4,0.3 0.6,0.4 0.3,0.1 0.6,0 0.8,-0.1 0.9,-0.3 1.8,-0.7 2.8,-1 0.4,-0.1 0.8,-0.3 1.1,-0.5 1,-0.7 1.3,-2.1 1.4,-3.4 0.1,-0.4 0.1,-0.8 -0.1,-1.1 -0.2,-0.4 -0.6,-0.6 -1,-0.8 -1.9,-0.8 -4,-1.2 -6.1,-1.1"
           style="fill:#f08677"
           id="path157" /><path
           class="st26"
           d="m 366,716.6 c -0.3,1.5 0.8,2.9 1.9,4.1 0.3,0.3 0.5,0.6 0.9,0.7 1,0.4 2,-0.6 2.5,-1.5 0.8,-1.4 1.3,-2.9 1.5,-4.4 0,-0.2 0.1,-0.5 -0.1,-0.7 -0.1,-0.2 -0.4,-0.3 -0.6,-0.3 -1.8,-0.4 -4,-0.7 -5.4,0.6"
           style="fill:#f08677"
           id="path158" /><path
           class="st26"
           d="m 373.5,728 c -0.6,0.5 -1,1.2 -1.3,1.9 -0.1,0.2 -0.2,0.4 -0.1,0.6 0.1,0.2 0.3,0.2 0.5,0.3 0.8,0.4 1,1.4 1.6,2 0.9,0.9 2.3,0.8 3.5,0.6 0.9,-0.2 1.8,-0.4 2.6,-0.8 0.8,-0.5 1.4,-1.3 1.5,-2.2 0,-1.1 -0.8,-2.1 -1.9,-2.5 -1.1,-0.3 -2.2,-0.1 -3.2,0.4"
           style="fill:#f08677"
           id="path159" /><path
           class="st26"
           d="m 359.3,730.8 c -0.4,0.5 -0.9,1 -1.1,1.6 -0.2,0.6 -0.1,1.4 0.4,1.8 0.2,0.2 0.6,0.3 0.9,0.4 1.4,0.4 2.9,0.4 4.1,-0.4 1.2,-0.8 1.7,-2.6 0.7,-3.7 -0.6,-0.7 -1.6,-0.9 -2.5,-0.8 -0.9,0.2 -1.7,0.7 -2.5,1.2"
           style="fill:#f08677"
           id="path160" /><path
           class="st26"
           d="m 380.5,709.8 c -1.1,0.4 -1.6,1.8 -1.4,2.9 0.2,1.1 0.8,2.1 1.5,3.1 0.4,0.6 0.8,1.1 1.5,1.3 0.8,0.2 1.5,-0.4 2.3,-0.6 0.5,-0.1 1.1,0 1.6,-0.1 1.8,-0.4 2.4,-2.8 1.5,-4.4 -0.9,-1.6 -2.7,-2.3 -4.5,-2.7 -0.2,0 -0.4,-0.1 -0.6,0 -0.1,0.1 -0.2,0.2 -0.2,0.4 -0.2,0.6 -0.4,1.1 -0.6,1.7"
           style="fill:#f08677"
           id="path161" /><path
           class="st26"
           d="m 387.9,720.4 c -0.6,0.5 -1,1.1 -1.2,1.9 0.7,-0.2 1.6,0.3 1.9,1 0.1,0.3 0.1,0.5 0.3,0.7 0.1,0.2 0.4,0.4 0.6,0.4 1.5,0.5 3.3,-0.7 3.4,-2.2 0,-0.3 0,-0.6 -0.2,-0.8 -0.2,-0.3 -0.5,-0.4 -0.9,-0.5 -0.9,-0.3 -1.9,-0.3 -2.9,-0.2"
           style="fill:#f08677"
           id="path162" /><path
           class="st26"
           d="m 393.2,708.3 c -0.7,0.7 -1.5,1.9 -0.8,2.7 0.4,0.5 1.3,0.8 1.3,1.4 0,0.2 -0.1,0.4 -0.1,0.7 0.1,0.5 0.8,0.6 1.3,0.5 1.1,-0.2 2.2,-0.4 3.2,-0.9 1,-0.6 1.7,-1.6 1.6,-2.7 -0.1,-1.3 -1.3,-2.3 -2.6,-2.5 -1.3,-0.2 -2.6,0.3 -3.7,0.9"
           style="fill:#f08677"
           id="path163" /><path
           class="st26"
           d="m 392.3,729.3 c -0.2,0.6 -0.7,1 -1,1.5 -0.3,0.5 -0.5,1.2 -0.1,1.7 0.2,0.3 0.6,0.5 0.8,0.8 0.5,0.6 0.2,1.7 0.9,2.1 0.3,0.2 0.7,0.1 1,0.1 1.4,-0.3 2.8,-0.9 3.9,-1.7 0.5,-0.4 1,-0.8 1.3,-1.4 0.6,-1.4 -0.4,-3.2 -1.8,-3.7 -1.4,-0.6 -3.1,-0.3 -4.5,0.2"
           style="fill:#f08677"
           id="path164" /></g><g
         class="st25"
         style="opacity:0.08"
         id="g208"><path
           class="st20"
           d="m 150.4,654.3 c -1.1,1.2 -1.9,2.7 -2.2,4.3 0.7,0 1.5,0.1 2.2,0.1 -0.5,1.1 0.7,2.3 1.9,2.2 1.2,-0.1 2,-1.3 2.2,-2.5 0.2,-1.2 -0.1,-2.3 -0.5,-3.5 -0.2,-0.7 -0.4,-1.4 -1,-1.8 -0.6,-0.4 -1.5,-0.4 -1.8,0.3"
           style="fill:#502e26"
           id="path165" /><path
           class="st20"
           d="m 160.4,657.4 c -1.1,0.7 -1.7,2.1 -1.5,3.4 0.2,-0.5 1,-0.4 1.3,0 0.3,0.4 0.3,1 0.4,1.6 0.1,0.6 0.3,1.1 0.9,1.2 0.4,0.1 0.8,-0.2 1.1,-0.4 1,-0.9 1.3,-2.5 0.9,-3.7 -0.5,-1.3 -1.7,-2.2 -3.1,-2.3"
           style="fill:#502e26"
           id="path166" /><path
           class="st20"
           d="m 176.1,654.9 c -1.2,0.8 -2.1,2.1 -2.5,3.5 1,-0.2 2,0.4 2.3,1.4 0.1,0.3 0.1,0.5 0.2,0.8 0.6,0.8 1.8,0 2.5,-0.7 0.5,-0.5 1.2,-1 1.4,-1.7 0.5,-1.3 -0.7,-2.8 -2.1,-3.2 -1.4,-0.4 -2.8,0 -4.2,0.5"
           style="fill:#502e26"
           id="path167" /><path
           class="st20"
           d="m 182.1,666.7 c -1.5,0.2 -2.9,1.3 -3.3,2.7 0.7,1 2.9,0.2 3.3,1.4 0.1,0.4 0,0.8 0.1,1.2 0.2,0.5 0.9,0.7 1.4,0.6 0.5,-0.2 0.9,-0.6 1.3,-1 0.6,-0.7 1.3,-1.4 1.3,-2.4 0,-1 -0.9,-1.9 -1.9,-2.2 -1,-0.3 -2.1,-0.2 -3.1,-0.1"
           style="fill:#502e26"
           id="path168" /><path
           class="st20"
           d="m 193.4,657.6 c -1.5,0.2 -2.4,2.1 -1.7,3.3 0.8,1.3 2.9,1.3 3.7,0 0.7,-1.2 0.1,-2.6 -0.5,-3.8 -0.3,-0.7 -0.8,-1.4 -1.5,-1.5"
           style="fill:#502e26"
           id="path169" /><path
           class="st20"
           d="m 164.7,646.7 c -1,0.4 -1.9,1.1 -2.5,2 -0.2,0.3 -0.4,0.6 -0.3,0.9 0.1,0.6 0.9,0.8 1.5,0.8 1.5,0 3.1,0 4.4,-0.8 1.3,-0.8 1.8,-2.8 0.7,-3.9 -0.5,-0.4 -1.1,-0.6 -1.8,-0.6 -1.7,0 -3.3,1.3 -3.8,2.9"
           style="fill:#502e26"
           id="path170" /><path
           class="st20"
           d="m 204.3,669.4 c -1.4,-0.7 -3.1,-0.8 -4.4,-0.1 -1.4,0.7 -2.3,2.3 -1.8,3.8 1.5,-0.2 3,-0.1 4.4,0.3 0.4,0.1 0.7,0.2 1.1,0.2 0.3,0 0.5,-0.1 0.8,-0.3 0.8,-0.5 1.3,-1.7 1,-2.6 -0.3,-0.9 -1.3,-1.7 -2.3,-1.6"
           style="fill:#502e26"
           id="path171" /><path
           class="st20"
           d="m 205.2,649 c -0.7,0.7 -1.2,1.6 -1.5,2.5 -0.2,0.5 -0.3,1.2 0,1.7 0.3,0.5 1,0.8 1.4,0.4 0.1,0.6 0.1,1.1 0.2,1.7 1.5,0.1 3,-0.7 3.7,-2 0.2,-0.4 0.4,-0.8 0.4,-1.2 0,-0.9 -0.8,-1.7 -1.7,-2 -0.9,-0.3 -1.8,-0.1 -2.7,0"
           style="fill:#502e26"
           id="path172" /><path
           class="st20"
           d="m 212.5,658.9 c -1.6,0.5 -3,1.5 -4,2.9 -0.1,0.2 -0.3,0.4 -0.3,0.6 0,0.6 0.9,0.8 1.5,0.7 1.5,-0.2 2.8,-1.1 3.7,-2.2 0.2,-0.2 0.3,-0.4 0.3,-0.7 0,-0.4 -0.2,-0.7 -0.5,-0.9 -1,-0.7 -2.5,-0.4 -3.1,0.6"
           style="fill:#502e26"
           id="path173" /><path
           class="st20"
           d="m 218.7,668.1 c -1.2,1 -2.2,2.3 -2.8,3.7 -0.1,0.2 -0.2,0.4 -0.1,0.6 0.2,0.4 0.8,0.3 1.2,0.4 1,0.1 1.7,1.2 2.7,1.3 0.3,0 0.7,-0.1 1,-0.3 1.2,-0.7 1.8,-2.3 1.3,-3.5 -0.5,-1.3 -2.1,-2 -3.4,-1.4"
           style="fill:#502e26"
           id="path174" /><path
           class="st20"
           d="m 221.8,653.3 c -0.8,1.2 -1.2,2.8 -1,4.2 1.9,0.6 4.1,-0.1 5.3,-1.6 0.2,-0.2 0.3,-0.4 0.3,-0.7 0,-0.5 -0.5,-0.8 -1,-0.9 -1,-0.3 -2,-0.6 -3.1,-0.6"
           style="fill:#502e26"
           id="path175" /><path
           class="st20"
           d="M 230.7,664.9"
           style="fill:#502e26"
           id="path176" /><path
           class="st20"
           d="M 230.7,664.9"
           style="fill:#502e26"
           id="path177" /><path
           class="st20"
           d="m 229.6,666.1 c -0.6,0.9 0.7,2.1 1.7,1.7 1,-0.5 1,-2 0.3,-2.7 -0.8,-0.7 -2,-0.8 -3,-0.3"
           style="fill:#502e26"
           id="path178" /><path
           class="st20"
           d="m 239.6,676.1 c -1,0.8 -2.2,2.1 -1.4,3.2 0.5,0.6 1.4,0.7 2,1 0.5,0.3 1,0.7 1.5,0.9 0.9,0.3 2,-0.3 2.5,-1.1 0.5,-0.8 0.7,-1.8 0.8,-2.8 0.1,-0.6 0.1,-1.2 -0.3,-1.6 -0.3,-0.3 -0.8,-0.4 -1.2,-0.3 -1.2,0.1 -2.4,0.6 -3.3,1.4"
           style="fill:#502e26"
           id="path179" /><path
           class="st20"
           d="m 241.2,662.2 c -1,0.7 -1.8,1.6 -2.4,2.6 -0.2,0.4 -0.4,1.1 0,1.3 0.2,0.2 0.6,0.1 0.8,0.2 0.4,0.2 0.6,0.7 0.8,1 0.6,1 2.1,1 3.1,0.4 1,-0.6 1.5,-1.8 1.8,-2.9 0.1,-0.5 0.2,-1 0,-1.4 -0.2,-0.3 -0.5,-0.4 -0.8,-0.5 -1.3,-0.5 -2.7,-0.8 -4,-0.7"
           style="fill:#502e26"
           id="path180" /><path
           class="st20"
           d="m 248.2,656.9 c -0.9,0.1 -1.1,1.4 -0.6,2.1 0.6,0.7 1.5,0.9 2.4,0.9 0.4,0 0.9,0 1.3,-0.1 1.3,-0.4 1.9,-2.1 1.2,-3.2 -0.7,-1.1 -2.5,-1.3 -3.4,-0.3"
           style="fill:#502e26"
           id="path181" /><path
           class="st20"
           d="m 255.9,667.8 c -1.9,0.2 -3.6,1.5 -4.3,3.2 0.4,-0.2 0.7,0.5 0.6,0.9 -0.1,0.4 -0.4,1 0,1.3 0.2,0.1 0.4,0.1 0.6,0.1 2.7,0 5.6,-1.5 6.4,-4.1 0.1,-0.3 0.1,-0.6 0.1,-0.8 -0.1,-0.6 -0.7,-0.9 -1.3,-1 -0.6,-0.1 -1.2,0.1 -1.7,0.3"
           style="fill:#502e26"
           id="path182" /><path
           class="st20"
           d="m 260.6,680.1 c -1.8,0.4 -3.4,1.3 -4.8,2.5 0.2,0.7 0.4,1.4 0.8,2 0.4,0.6 1.1,1 1.8,0.9 0.5,-0.1 0.9,-0.3 1.3,-0.5 1.2,-0.5 2.7,-0.4 3.5,-1.5 0.4,-0.6 0.4,-1.5 -0.1,-2.1 -0.5,-0.6 -1.4,-0.8 -2.1,-0.4"
           style="fill:#502e26"
           id="path183" /><path
           class="st20"
           d="m 264.9,671.4 c -0.4,0.4 -0.8,0.7 -1.1,1.2 -0.2,0.5 -0.3,1.1 0.1,1.5 0.3,0.3 0.8,0.4 1.3,0.5 1.1,0.2 2.3,0.3 3,-0.6 0.6,-0.8 0.3,-2 -0.5,-2.6 -0.8,-0.6 -1.9,-0.6 -2.8,-0.3"
           style="fill:#502e26"
           id="path184" /><path
           class="st20"
           d="m 268.6,660 c -0.9,0.6 -1.7,1.5 -2.1,2.5 -0.1,0.2 -0.2,0.5 -0.1,0.7 0.3,0.6 1.2,0.1 1.8,0.4 0.7,0.3 0.4,1.5 0.8,2.1 0.6,0.8 1.8,0.4 2.7,-0.1 0.6,-0.4 1.3,-0.8 1.9,-1.1 0.4,-0.3 0.9,-0.6 1.1,-1.1 0.2,-0.6 -0.3,-1.3 -0.7,-1.8 -1.2,-1.1 -2.8,-1.9 -4.4,-2"
           style="fill:#502e26"
           id="path185" /><path
           class="st20"
           d="m 280.9,673.1 c -0.9,0.2 -1.7,0.6 -2.5,1.1 -0.2,0.1 -0.4,0.3 -0.5,0.5 -0.2,0.5 0.2,1.1 0.6,1.4 2,1.7 5.5,1.3 7.1,-0.9 0.2,-0.3 0.3,-0.6 0.2,-0.9 -0.1,-0.2 -0.2,-0.3 -0.4,-0.4 -1.6,-1.1 -3.8,-1.3 -5.5,-0.4"
           style="fill:#502e26"
           id="path186" /><path
           class="st20"
           d="m 272,684.2 c -0.2,0.3 -0.5,0.5 -0.7,0.8 1.4,0.3 1.6,2.3 2.8,3.1 0.4,0.2 0.8,0.3 1.2,0.3 1.3,-0.2 2,-1.9 1.4,-3.1 -0.6,-1.2 -2.2,-1.7 -3.4,-1.3"
           style="fill:#502e26"
           id="path187" /><path
           class="st20"
           d="m 290,662.6 c -0.9,0.6 -1.5,1.5 -1.8,2.5 0,0.1 -0.1,0.3 0,0.4 0.1,0.2 0.3,0.3 0.6,0.3 0.9,0.1 1.8,-0.2 2.6,0.2 0.7,0.3 1.1,1 1.8,1.3 0.9,0.3 1.8,-0.4 2,-1.3 0.2,-0.9 -0.2,-1.8 -0.8,-2.5 -0.6,-0.7 -1.4,-1.1 -2.2,-1.5 -0.7,-0.3 -1.9,-0.4 -1.9,0.3"
           style="fill:#502e26"
           id="path188" /><path
           class="st20"
           d="m 294.7,674.6 c -0.4,0.9 0.3,2 1.2,2.2 0.4,0.1 0.9,0 1.3,0.1 0.9,0.2 1.4,1.1 2.3,1.3 1,0.3 2,-0.3 2.7,-1 0.4,-0.5 0.8,-1 0.9,-1.6 0.2,-1.1 -0.5,-2.2 -1.3,-3 -0.8,-0.8 -1.7,-1.4 -2.8,-1.6 -1.1,-0.2 -2.3,0.1 -3,0.9"
           style="fill:#502e26"
           id="path189" /><path
           class="st20"
           d="m 290.6,683.5 c -1.4,0.7 -2.5,2 -2.9,3.6 0.4,-0.2 0.9,0.3 1.1,0.7 0.1,0.5 0.2,1.1 0.7,1.3 0.7,0.4 1.6,-0.6 2.4,-0.3 0.3,0.1 0.5,0.3 0.8,0.5 0.6,0.3 1.3,-0.1 1.7,-0.7 0.4,-0.6 0.4,-1.2 0.5,-1.9 0,-0.4 0,-0.7 -0.2,-1 -0.2,-0.2 -0.4,-0.3 -0.7,-0.3 -1.1,-0.3 -2.3,-0.7 -3.4,-1"
           style="fill:#502e26"
           id="path190" /><path
           class="st20"
           d="m 300.5,682.5 c -0.1,0.5 -0.6,0.9 -0.8,1.4 -0.2,0.5 -0.1,1.3 0.5,1.3 0.2,0 0.4,-0.1 0.6,-0.1 0.5,-0.1 0.8,0.4 1.2,0.6 0.9,0.6 2.3,0.1 2.7,-0.9 0.4,-1 -0.1,-2.3 -1.1,-2.8 -1,-0.5 -2.3,-0.2 -3,0.5"
           style="fill:#502e26"
           id="path191" /><path
           class="st20"
           d="m 311.9,686.2 c -1.6,1.6 -2.8,3.7 -3.4,5.9 -0.1,0.4 -0.1,0.9 0.2,1 0.3,0.1 0.7,-0.1 1,0 0.5,0.1 0.5,0.8 0.7,1.3 0.4,1.1 1.8,1.4 3,1.6 1.1,0.1 2.3,0.2 3.4,0.4 0.4,0 0.8,0.1 1.1,-0.1 0.5,-0.3 0.6,-1 0.6,-1.6 -0.2,-1.8 -1.4,-3.5 -3.1,-4.3 -0.8,-0.4 -1.9,-0.7 -1.9,-1.6 0,-0.3 0.1,-0.6 0.1,-0.9 -0.1,-0.9 -1.4,-1 -2.3,-0.8"
           style="fill:#502e26"
           id="path192" /><path
           class="st20"
           d="m 309.2,664.7 c -0.4,0.8 -0.8,1.6 -1.1,2.4 -0.1,0.2 -0.2,0.5 -0.2,0.7 0.1,0.8 1.3,0.8 2.1,1.2 1,0.6 1.3,2.2 2.4,2.5 0.8,0.2 1.6,-0.6 2.1,-1.3 0.6,-0.7 1.2,-1.5 1.5,-2.3 0.3,-0.8 0.4,-1.9 -0.2,-2.7 -0.3,-0.5 -0.9,-0.9 -1.4,-1.2 -0.9,-0.6 -1.9,-1.1 -3,-1 -1.1,0.1 -2.1,1.1 -1.8,2.2"
           style="fill:#502e26"
           id="path193" /><path
           class="st20"
           d="m 311.5,678.5 c -0.3,-0.8 0.3,-1.7 1.1,-2 0.8,-0.3 1.7,0 2.4,0.3 0.6,0.3 1.3,0.7 1.6,1.3 -0.9,0.7 -2,1.3 -3,1.8"
           style="fill:#502e26"
           id="path194" /><path
           class="st20"
           d="m 321,681.7 c -0.8,0.8 -1.7,2 -1,2.9 0.2,0.2 0.5,0.4 0.7,0.6 0.8,0.8 0.7,2.1 1.4,3 0.7,0.8 1.8,1 2.8,0.9 0.6,0 1.3,-0.2 1.7,-0.7 0.6,-0.7 0.4,-1.8 0,-2.6 -1,-2 -3,-3.4 -5.1,-3.7"
           style="fill:#502e26"
           id="path195" /><path
           class="st20"
           d="m 327.8,672.2 c -0.8,0.5 -1.6,1.3 -1.2,2.1 0.1,0.3 0.4,0.4 0.7,0.6 0.8,0.7 1.1,1.9 0.7,2.9 1.2,-0.1 2.5,-0.2 3.7,-0.3 0.8,-1.4 1.4,-2.8 1.7,-4.3 0.1,-0.3 0.1,-0.6 0,-0.9 -0.1,-0.3 -0.4,-0.5 -0.6,-0.6 -1.2,-0.7 -2.9,-0.7 -4.1,0.2"
           style="fill:#502e26"
           id="path196" /><path
           class="st20"
           d="m 336.9,681.5 c -0.7,0.8 -1.2,1.7 -1.6,2.6 -0.1,0.2 -0.1,0.3 -0.1,0.5 0.1,0.7 1.4,0.3 1.8,0.9 0.2,0.4 0,0.8 0.1,1.2 0.2,0.6 0.9,0.7 1.5,0.5 0.6,-0.2 1.1,-0.5 1.7,-0.5 0.4,0 0.8,0.2 1.2,0.1 0.7,-0.1 1.1,-0.8 1.1,-1.5 0.1,-1.3 -0.9,-2.4 -2.1,-2.9 -1.2,-0.5 -2.5,-0.4 -3.7,-0.4"
           style="fill:#502e26"
           id="path197" /><path
           class="st20"
           d="m 341.9,671.1 c -0.7,0.9 -1.1,2.1 -1.2,3.2 1,0.7 1.2,2.2 0.6,3.2 0.9,-0.2 1.7,-0.4 2.6,-0.6 0.3,-0.1 0.7,-0.2 1,-0.3 1.6,-0.7 2.4,-2.8 1.6,-4.4 -0.8,-1.6 -3,-2.2 -4.5,-1.4"
           style="fill:#502e26"
           id="path198" /><path
           class="st20"
           d="m 333.8,694.6 c -0.2,0.4 -0.4,0.8 -0.6,1.3 -0.2,0.5 -0.4,1.1 -0.1,1.5 0.7,0.8 2.5,-0.6 2.9,0.3 0.1,0.2 0,0.5 0.2,0.7 0.3,0.4 1,0 1.3,-0.4 0.7,-1 1.1,-2.3 1.2,-3.5 0,-0.3 0,-0.6 -0.1,-0.8 -0.2,-0.3 -0.5,-0.4 -0.8,-0.5 -0.8,-0.3 -1.6,-0.6 -2.4,-0.4 -0.8,0.2 -1.4,1.2 -1,1.8"
           style="fill:#502e26"
           id="path199" /><path
           class="st20"
           d="m 348.8,689.7 c -0.9,0.4 -1.4,1.5 -1.1,2.5 0.3,-0.4 1,-0.1 1.3,0.3 0.3,0.5 0.4,1 0.9,1.3 0.6,0.4 1.4,0 1.9,-0.4 1.7,-1.3 2.9,-3.2 3.2,-5.3 0,-0.2 0.1,-0.4 0,-0.5 -0.1,-0.2 -0.4,-0.3 -0.6,-0.3 -1.8,-0.2 -3.7,0.4 -5.1,1.7"
           style="fill:#502e26"
           id="path200" /><path
           class="st20"
           d="m 357,673.6 c -1.5,-0.1 -2.5,1.8 -2.2,3.3 0.3,1.5 1.5,2.6 2.6,3.7 0.2,0.2 0.4,0.3 0.6,0.4 0.3,0.1 0.6,0 0.8,-0.1 0.9,-0.3 1.8,-0.7 2.8,-1 0.4,-0.1 0.8,-0.3 1.1,-0.5 1,-0.7 1.3,-2.1 1.4,-3.4 0.1,-0.4 0.1,-0.8 -0.1,-1.1 -0.2,-0.4 -0.6,-0.6 -1,-0.8 -1.9,-0.8 -4,-1.2 -6.1,-1.1"
           style="fill:#502e26"
           id="path201" /><path
           class="st20"
           d="m 361.1,685.7 c -0.3,1.5 0.8,2.9 1.9,4.1 0.3,0.3 0.5,0.6 0.9,0.7 1,0.4 2,-0.6 2.5,-1.5 0.8,-1.4 1.3,-2.9 1.5,-4.4 0,-0.2 0.1,-0.5 -0.1,-0.7 -0.1,-0.2 -0.4,-0.3 -0.6,-0.3 -1.8,-0.4 -4,-0.7 -5.4,0.6"
           style="fill:#502e26"
           id="path202" /><path
           class="st20"
           d="m 368.6,697.1 c -0.6,0.5 -1,1.2 -1.3,1.9 -0.1,0.2 -0.2,0.4 -0.1,0.6 0.1,0.2 0.3,0.2 0.5,0.3 0.8,0.4 1,1.4 1.6,2 0.9,0.9 2.3,0.8 3.5,0.6 0.9,-0.2 1.8,-0.4 2.6,-0.8 0.8,-0.5 1.4,-1.3 1.5,-2.2 0,-1.1 -0.8,-2.1 -1.9,-2.5 -1.1,-0.3 -2.2,-0.1 -3.2,0.4"
           style="fill:#502e26"
           id="path203" /><path
           class="st20"
           d="m 354.4,699.9 c -0.4,0.5 -0.9,1 -1.1,1.6 -0.2,0.6 -0.1,1.4 0.4,1.8 0.2,0.2 0.6,0.3 0.9,0.4 1.4,0.4 2.9,0.4 4.1,-0.4 1.2,-0.8 1.7,-2.6 0.7,-3.7 -0.6,-0.7 -1.6,-0.9 -2.5,-0.8 -0.9,0.1 -1.7,0.7 -2.5,1.2"
           style="fill:#502e26"
           id="path204" /><path
           class="st20"
           d="m 375.6,678.9 c -1.1,0.4 -1.6,1.8 -1.4,2.9 0.2,1.1 0.8,2.1 1.5,3.1 0.4,0.6 0.8,1.1 1.5,1.3 0.8,0.2 1.5,-0.4 2.3,-0.6 0.5,-0.1 1.1,0 1.6,-0.1 1.8,-0.4 2.4,-2.8 1.5,-4.4 -0.9,-1.5 -2.7,-2.3 -4.5,-2.7 -0.2,0 -0.4,-0.1 -0.6,0 -0.1,0.1 -0.2,0.2 -0.2,0.4 -0.2,0.6 -0.4,1.1 -0.6,1.7"
           style="fill:#502e26"
           id="path205" /><path
           class="st20"
           d="m 383,689.5 c -0.6,0.5 -1,1.1 -1.2,1.9 0.7,-0.2 1.6,0.3 1.9,1 0.1,0.3 0.1,0.5 0.3,0.7 0.1,0.2 0.4,0.4 0.6,0.4 1.5,0.5 3.3,-0.7 3.4,-2.2 0,-0.3 0,-0.6 -0.2,-0.8 -0.2,-0.3 -0.5,-0.4 -0.9,-0.5 -0.9,-0.3 -1.9,-0.3 -2.9,-0.2"
           style="fill:#502e26"
           id="path206" /><path
           class="st20"
           d="m 388.3,677.4 c -0.7,0.7 -1.5,1.9 -0.8,2.7 0.4,0.5 1.3,0.8 1.3,1.4 0,0.2 -0.1,0.4 -0.1,0.7 0.1,0.5 0.8,0.6 1.3,0.5 1.1,-0.2 2.2,-0.4 3.2,-0.9 1,-0.6 1.7,-1.6 1.6,-2.7 -0.1,-1.3 -1.3,-2.3 -2.6,-2.5 -1.3,-0.2 -2.6,0.3 -3.7,0.9"
           style="fill:#502e26"
           id="path207" /><path
           class="st20"
           d="m 387.4,698.4 c -0.2,0.6 -0.7,1 -1,1.5 -0.3,0.5 -0.5,1.2 -0.1,1.7 0.2,0.3 0.6,0.5 0.8,0.8 0.5,0.6 0.2,1.7 0.9,2.1 0.3,0.2 0.7,0.1 1,0.1 1.4,-0.3 2.8,-0.9 3.9,-1.7 0.5,-0.4 1,-0.8 1.3,-1.4 0.6,-1.4 -0.4,-3.2 -1.8,-3.7 -1.4,-0.5 -3.1,-0.3 -4.5,0.2"
           style="fill:#502e26"
           id="path208" /></g><g
         class="st25"
         style="opacity:0.08"
         id="g252"><path
           class="st20"
           d="m 147.2,627.7 c -1.1,1.2 -1.9,2.7 -2.2,4.3 0.7,0 1.5,0.1 2.2,0.1 -0.5,1.1 0.7,2.3 1.9,2.2 1.2,-0.1 2,-1.3 2.2,-2.5 0.2,-1.2 -0.1,-2.3 -0.5,-3.5 -0.2,-0.7 -0.4,-1.4 -1,-1.8 -0.6,-0.4 -1.5,-0.4 -1.8,0.3"
           style="fill:#502e26"
           id="path209" /><path
           class="st20"
           d="m 157.2,630.8 c -1.1,0.7 -1.7,2.1 -1.5,3.4 0.2,-0.5 1,-0.4 1.3,0 0.3,0.4 0.3,1 0.4,1.6 0.1,0.5 0.3,1.1 0.9,1.2 0.4,0.1 0.8,-0.2 1.1,-0.4 1,-0.9 1.3,-2.5 0.9,-3.7 -0.5,-1.3 -1.7,-2.2 -3.1,-2.3"
           style="fill:#502e26"
           id="path210" /><path
           class="st20"
           d="m 172.8,628.3 c -1.2,0.8 -2.1,2.1 -2.5,3.5 1,-0.2 2,0.4 2.3,1.4 0.1,0.3 0.1,0.5 0.2,0.8 0.6,0.8 1.8,0 2.5,-0.7 0.5,-0.5 1.2,-1 1.4,-1.7 0.5,-1.3 -0.7,-2.8 -2.1,-3.2 -1.4,-0.4 -2.8,0 -4.2,0.5"
           style="fill:#502e26"
           id="path211" /><path
           class="st20"
           d="m 178.9,640.1 c -1.5,0.2 -2.9,1.3 -3.3,2.7 0.7,1 2.9,0.2 3.3,1.4 0.1,0.4 0,0.8 0.1,1.2 0.2,0.5 0.9,0.7 1.4,0.6 0.5,-0.1 0.9,-0.6 1.3,-1 0.6,-0.7 1.3,-1.4 1.3,-2.4 0,-1 -0.9,-1.9 -1.9,-2.2 -1,-0.3 -2.1,-0.2 -3.1,-0.1"
           style="fill:#502e26"
           id="path212" /><path
           class="st20"
           d="m 190.2,631 c -1.5,0.2 -2.4,2.1 -1.7,3.3 0.8,1.3 2.9,1.3 3.7,0 0.7,-1.2 0.1,-2.6 -0.5,-3.8 -0.3,-0.7 -0.8,-1.4 -1.5,-1.5"
           style="fill:#502e26"
           id="path213" /><path
           class="st20"
           d="m 161.4,620.1 c -1,0.4 -1.9,1.1 -2.5,2 -0.2,0.3 -0.4,0.6 -0.3,0.9 0.1,0.6 0.9,0.8 1.5,0.8 1.5,0 3.1,0 4.4,-0.8 1.3,-0.8 1.8,-2.8 0.7,-3.9 -0.5,-0.4 -1.1,-0.6 -1.8,-0.6 -1.7,0 -3.3,1.3 -3.8,2.9"
           style="fill:#502e26"
           id="path214" /><path
           class="st20"
           d="m 201.1,642.8 c -1.4,-0.7 -3.1,-0.8 -4.4,-0.1 -1.4,0.7 -2.3,2.3 -1.8,3.8 1.5,-0.2 3,-0.1 4.4,0.3 0.4,0.1 0.7,0.2 1.1,0.2 0.3,0 0.5,-0.1 0.8,-0.3 0.8,-0.5 1.3,-1.7 1,-2.6 -0.3,-1 -1.3,-1.7 -2.3,-1.6"
           style="fill:#502e26"
           id="path215" /><path
           class="st20"
           d="m 202,622.4 c -0.7,0.7 -1.2,1.6 -1.5,2.5 -0.2,0.5 -0.3,1.2 0,1.7 0.3,0.5 1,0.8 1.4,0.4 0.1,0.6 0.1,1.1 0.2,1.7 1.5,0.1 3,-0.7 3.7,-2 0.2,-0.4 0.4,-0.8 0.4,-1.2 0,-0.9 -0.8,-1.7 -1.7,-2 -0.9,-0.3 -1.8,-0.1 -2.7,0"
           style="fill:#502e26"
           id="path216" /><path
           class="st20"
           d="m 209.3,632.3 c -1.6,0.5 -3,1.5 -4,2.9 -0.1,0.2 -0.3,0.4 -0.3,0.6 0,0.6 0.9,0.8 1.5,0.7 1.5,-0.2 2.8,-1.1 3.7,-2.2 0.2,-0.2 0.3,-0.4 0.3,-0.7 0,-0.4 -0.2,-0.7 -0.5,-0.9 -1,-0.7 -2.5,-0.4 -3.1,0.6"
           style="fill:#502e26"
           id="path217" /><path
           class="st20"
           d="m 215.5,641.5 c -1.2,1 -2.2,2.3 -2.8,3.7 -0.1,0.2 -0.2,0.4 -0.1,0.6 0.2,0.4 0.8,0.3 1.2,0.4 1,0.1 1.7,1.2 2.7,1.3 0.3,0 0.7,-0.1 1,-0.3 1.2,-0.7 1.8,-2.3 1.3,-3.5 -0.5,-1.3 -2.1,-2 -3.4,-1.4"
           style="fill:#502e26"
           id="path218" /><path
           class="st20"
           d="m 218.5,626.7 c -0.8,1.2 -1.2,2.8 -1,4.2 1.9,0.6 4.1,-0.1 5.3,-1.6 0.2,-0.2 0.3,-0.4 0.3,-0.7 0,-0.5 -0.5,-0.8 -1,-0.9 -1,-0.3 -2,-0.6 -3.1,-0.6"
           style="fill:#502e26"
           id="path219" /><path
           class="st20"
           d="M 227.4,638.3"
           style="fill:#502e26"
           id="path220" /><path
           class="st20"
           d="M 227.4,638.3"
           style="fill:#502e26"
           id="path221" /><path
           class="st20"
           d="m 226.4,639.5 c -0.6,0.9 0.7,2.1 1.7,1.7 1,-0.5 1,-2 0.3,-2.7 -0.8,-0.7 -2,-0.8 -3,-0.3"
           style="fill:#502e26"
           id="path222" /><path
           class="st20"
           d="m 236.4,649.5 c -1,0.8 -2.2,2.1 -1.4,3.2 0.5,0.6 1.4,0.7 2,1 0.5,0.3 1,0.7 1.5,0.9 0.9,0.3 2,-0.3 2.5,-1.1 0.5,-0.8 0.7,-1.8 0.8,-2.8 0.1,-0.6 0.1,-1.2 -0.3,-1.6 -0.3,-0.3 -0.8,-0.4 -1.2,-0.3 -1.2,0.1 -2.4,0.6 -3.3,1.4"
           style="fill:#502e26"
           id="path223" /><path
           class="st20"
           d="m 238,635.6 c -1,0.7 -1.8,1.6 -2.4,2.6 -0.2,0.4 -0.4,1.1 0,1.3 0.2,0.2 0.6,0.1 0.8,0.2 0.4,0.2 0.6,0.7 0.8,1 0.6,1 2.1,1 3.1,0.4 1,-0.6 1.5,-1.8 1.8,-2.9 0.1,-0.5 0.2,-1 0,-1.4 -0.2,-0.3 -0.5,-0.4 -0.8,-0.5 -1.3,-0.5 -2.7,-0.8 -4,-0.7"
           style="fill:#502e26"
           id="path224" /><path
           class="st20"
           d="m 245,630.3 c -0.9,0.1 -1.1,1.4 -0.6,2.1 0.5,0.7 1.5,0.9 2.4,0.9 0.4,0 0.9,0 1.3,-0.1 1.3,-0.4 1.9,-2.1 1.2,-3.2 -0.7,-1.1 -2.5,-1.3 -3.4,-0.3"
           style="fill:#502e26"
           id="path225" /><path
           class="st20"
           d="m 252.7,641.2 c -1.9,0.2 -3.6,1.5 -4.3,3.2 0.4,-0.2 0.7,0.5 0.6,0.9 -0.1,0.4 -0.4,1 0,1.3 0.2,0.1 0.4,0.1 0.6,0.1 2.7,0 5.6,-1.5 6.4,-4.1 0.1,-0.3 0.1,-0.6 0.1,-0.8 -0.1,-0.6 -0.7,-0.9 -1.3,-1 -0.6,-0.1 -1.2,0.1 -1.7,0.3"
           style="fill:#502e26"
           id="path226" /><path
           class="st20"
           d="m 257.4,653.5 c -1.8,0.4 -3.4,1.3 -4.8,2.5 0.2,0.7 0.4,1.4 0.8,2 0.4,0.6 1.1,1 1.8,0.9 0.5,-0.1 0.9,-0.3 1.3,-0.5 1.2,-0.5 2.7,-0.4 3.5,-1.5 0.4,-0.6 0.4,-1.5 -0.1,-2.1 -0.5,-0.6 -1.4,-0.8 -2.1,-0.4"
           style="fill:#502e26"
           id="path227" /><path
           class="st20"
           d="m 261.6,644.8 c -0.4,0.4 -0.8,0.7 -1.1,1.2 -0.2,0.5 -0.3,1.1 0.1,1.5 0.3,0.3 0.8,0.4 1.3,0.5 1.1,0.2 2.3,0.3 3,-0.6 0.6,-0.8 0.3,-2 -0.5,-2.6 -0.8,-0.6 -1.9,-0.6 -2.8,-0.3"
           style="fill:#502e26"
           id="path228" /><path
           class="st20"
           d="m 265.3,633.4 c -0.9,0.6 -1.7,1.5 -2.1,2.5 -0.1,0.2 -0.2,0.5 -0.1,0.7 0.3,0.6 1.2,0.1 1.8,0.4 0.7,0.3 0.4,1.5 0.8,2.1 0.6,0.8 1.8,0.4 2.7,-0.1 0.6,-0.4 1.3,-0.8 1.9,-1.1 0.4,-0.3 0.9,-0.6 1.1,-1.1 0.2,-0.6 -0.3,-1.3 -0.7,-1.8 -1.2,-1.1 -2.8,-1.9 -4.4,-2"
           style="fill:#502e26"
           id="path229" /><path
           class="st20"
           d="m 277.7,646.5 c -0.9,0.2 -1.7,0.6 -2.5,1.1 -0.2,0.1 -0.4,0.3 -0.5,0.5 -0.2,0.5 0.2,1.1 0.6,1.4 2,1.7 5.5,1.3 7.1,-0.9 0.2,-0.3 0.3,-0.6 0.2,-0.9 -0.1,-0.2 -0.2,-0.3 -0.4,-0.4 -1.6,-1.1 -3.8,-1.3 -5.5,-0.4"
           style="fill:#502e26"
           id="path230" /><path
           class="st20"
           d="m 268.8,657.6 c -0.2,0.3 -0.5,0.5 -0.7,0.8 1.4,0.3 1.6,2.3 2.8,3.1 0.4,0.2 0.8,0.3 1.2,0.3 1.3,-0.2 2,-1.9 1.4,-3.1 -0.6,-1.2 -2.2,-1.7 -3.4,-1.3"
           style="fill:#502e26"
           id="path231" /><path
           class="st20"
           d="m 286.8,636 c -0.9,0.6 -1.5,1.5 -1.8,2.5 0,0.1 -0.1,0.3 0,0.4 0.1,0.2 0.3,0.3 0.6,0.3 0.9,0.1 1.8,-0.2 2.6,0.2 0.7,0.3 1.1,1 1.8,1.3 0.9,0.3 1.8,-0.4 2,-1.3 0.2,-0.9 -0.2,-1.8 -0.8,-2.5 -0.6,-0.7 -1.4,-1.1 -2.2,-1.5 -0.7,-0.3 -1.9,-0.4 -1.9,0.3"
           style="fill:#502e26"
           id="path232" /><path
           class="st20"
           d="m 291.4,648 c -0.4,0.9 0.3,2 1.2,2.2 0.4,0.1 0.9,0 1.3,0.1 0.9,0.2 1.4,1.1 2.3,1.3 1,0.3 2,-0.3 2.7,-1 0.4,-0.5 0.8,-1 0.9,-1.6 0.2,-1.1 -0.5,-2.2 -1.3,-3 -0.8,-0.8 -1.7,-1.4 -2.8,-1.6 -1.1,-0.2 -2.3,0.1 -3,0.9"
           style="fill:#502e26"
           id="path233" /><path
           class="st20"
           d="m 287.4,656.9 c -1.4,0.7 -2.5,2 -2.9,3.6 0.4,-0.2 0.9,0.3 1.1,0.7 0.1,0.5 0.2,1.1 0.7,1.3 0.7,0.4 1.6,-0.6 2.4,-0.3 0.3,0.1 0.5,0.3 0.8,0.5 0.6,0.3 1.3,-0.1 1.7,-0.7 0.3,-0.6 0.4,-1.2 0.5,-1.9 0,-0.4 0,-0.7 -0.2,-1 -0.2,-0.2 -0.4,-0.3 -0.7,-0.3 -1.1,-0.3 -2.3,-0.7 -3.4,-1"
           style="fill:#502e26"
           id="path234" /><path
           class="st20"
           d="m 297.2,655.9 c -0.1,0.5 -0.6,0.9 -0.8,1.4 -0.2,0.5 -0.1,1.3 0.5,1.3 0.2,0 0.4,-0.1 0.6,-0.1 0.5,-0.1 0.8,0.4 1.2,0.6 0.9,0.6 2.3,0.1 2.7,-0.9 0.4,-1 -0.1,-2.3 -1.1,-2.8 -1,-0.5 -2.3,-0.2 -3,0.5"
           style="fill:#502e26"
           id="path235" /><path
           class="st20"
           d="m 308.6,659.6 c -1.6,1.6 -2.8,3.7 -3.4,5.9 -0.1,0.4 -0.1,0.9 0.2,1 0.3,0.1 0.7,-0.1 1,0 0.5,0.1 0.5,0.8 0.7,1.3 0.4,1.1 1.8,1.4 3,1.6 1.1,0.1 2.3,0.2 3.4,0.4 0.4,0 0.8,0.1 1.1,-0.1 0.5,-0.3 0.6,-1 0.6,-1.6 -0.2,-1.8 -1.4,-3.5 -3.1,-4.3 -0.8,-0.4 -1.9,-0.7 -1.9,-1.6 0,-0.3 0.1,-0.6 0.1,-0.9 -0.1,-0.9 -1.4,-1 -2.3,-0.8"
           style="fill:#502e26"
           id="path236" /><path
           class="st20"
           d="m 306,638.1 c -0.4,0.8 -0.8,1.6 -1.1,2.4 -0.1,0.2 -0.2,0.5 -0.2,0.7 0.1,0.8 1.3,0.8 2.1,1.2 1,0.6 1.3,2.2 2.4,2.5 0.8,0.2 1.6,-0.6 2.1,-1.3 0.6,-0.7 1.2,-1.5 1.5,-2.3 0.3,-0.8 0.4,-1.9 -0.2,-2.7 -0.3,-0.5 -0.9,-0.9 -1.4,-1.2 -0.9,-0.6 -1.9,-1.1 -3,-1 -1.1,0.1 -2.1,1.1 -1.8,2.2"
           style="fill:#502e26"
           id="path237" /><path
           class="st20"
           d="m 308.3,651.9 c -0.3,-0.8 0.3,-1.7 1.1,-2 0.8,-0.3 1.7,0 2.4,0.3 0.6,0.3 1.3,0.7 1.6,1.3 -0.9,0.7 -2,1.3 -3,1.8"
           style="fill:#502e26"
           id="path238" /><path
           class="st20"
           d="m 317.7,655.1 c -0.8,0.8 -1.7,2 -1,2.9 0.2,0.2 0.5,0.4 0.7,0.6 0.8,0.8 0.7,2.1 1.4,3 0.7,0.8 1.8,1 2.8,0.9 0.6,0 1.3,-0.2 1.7,-0.7 0.6,-0.7 0.4,-1.8 0,-2.6 -1,-2 -3,-3.4 -5.1,-3.7"
           style="fill:#502e26"
           id="path239" /><path
           class="st20"
           d="m 324.5,645.6 c -0.8,0.5 -1.6,1.3 -1.2,2.1 0.1,0.3 0.4,0.4 0.7,0.6 0.8,0.7 1.1,1.9 0.7,2.9 1.2,-0.1 2.5,-0.2 3.7,-0.3 0.8,-1.4 1.4,-2.8 1.7,-4.3 0.1,-0.3 0.1,-0.6 0,-0.9 -0.1,-0.3 -0.4,-0.5 -0.6,-0.6 -1.2,-0.7 -2.9,-0.7 -4.1,0.2"
           style="fill:#502e26"
           id="path240" /><path
           class="st20"
           d="m 333.7,654.9 c -0.7,0.8 -1.2,1.7 -1.6,2.6 -0.1,0.2 -0.1,0.3 -0.1,0.5 0.1,0.7 1.4,0.3 1.8,0.9 0.2,0.4 0,0.8 0.1,1.2 0.2,0.6 0.9,0.7 1.5,0.5 0.6,-0.2 1.1,-0.5 1.7,-0.5 0.4,0 0.8,0.2 1.2,0.1 0.7,-0.1 1.1,-0.8 1.1,-1.5 0.1,-1.3 -0.9,-2.4 -2.1,-2.9 -1.2,-0.5 -2.5,-0.4 -3.7,-0.4"
           style="fill:#502e26"
           id="path241" /><path
           class="st20"
           d="m 338.6,644.5 c -0.7,0.9 -1.1,2.1 -1.2,3.2 1,0.7 1.2,2.2 0.6,3.2 0.9,-0.2 1.7,-0.4 2.6,-0.6 0.3,-0.1 0.7,-0.2 1,-0.3 1.6,-0.7 2.4,-2.8 1.6,-4.4 -0.8,-1.6 -3,-2.2 -4.5,-1.4"
           style="fill:#502e26"
           id="path242" /><path
           class="st20"
           d="m 330.6,668 c -0.2,0.4 -0.4,0.8 -0.6,1.3 -0.2,0.5 -0.4,1.1 -0.1,1.5 0.7,0.8 2.5,-0.6 2.9,0.3 0.1,0.2 0,0.5 0.2,0.7 0.3,0.4 1,0 1.3,-0.4 0.7,-1 1.1,-2.3 1.2,-3.5 0,-0.3 0,-0.6 -0.1,-0.8 -0.2,-0.3 -0.5,-0.4 -0.8,-0.5 -0.8,-0.3 -1.6,-0.6 -2.4,-0.4 -0.8,0.2 -1.4,1.2 -1,1.8"
           style="fill:#502e26"
           id="path243" /><path
           class="st20"
           d="m 345.6,663.1 c -0.9,0.4 -1.4,1.5 -1.1,2.5 0.3,-0.4 1,-0.1 1.3,0.3 0.3,0.4 0.4,1 0.9,1.3 0.6,0.4 1.4,0 1.9,-0.4 1.7,-1.3 2.9,-3.2 3.2,-5.3 0,-0.2 0.1,-0.4 0,-0.5 -0.1,-0.2 -0.4,-0.3 -0.6,-0.3 -1.8,-0.2 -3.7,0.4 -5.1,1.7"
           style="fill:#502e26"
           id="path244" /><path
           class="st20"
           d="m 353.7,647 c -1.5,-0.1 -2.5,1.8 -2.2,3.3 0.3,1.5 1.5,2.6 2.6,3.7 0.2,0.2 0.4,0.3 0.6,0.4 0.3,0.1 0.6,0 0.8,-0.1 0.9,-0.3 1.8,-0.7 2.8,-1 0.4,-0.1 0.8,-0.3 1.1,-0.5 1,-0.7 1.3,-2.1 1.4,-3.4 0.1,-0.4 0.1,-0.8 -0.1,-1.1 -0.2,-0.4 -0.6,-0.6 -1,-0.8 -1.9,-0.8 -4,-1.2 -6.1,-1.1"
           style="fill:#502e26"
           id="path245" /><path
           class="st20"
           d="m 357.9,659.1 c -0.3,1.5 0.8,2.9 1.9,4.1 0.3,0.3 0.5,0.6 0.9,0.7 1,0.4 2,-0.6 2.5,-1.5 0.8,-1.4 1.3,-2.9 1.5,-4.4 0,-0.2 0.1,-0.5 -0.1,-0.7 -0.1,-0.2 -0.4,-0.3 -0.6,-0.3 -1.8,-0.4 -4,-0.7 -5.4,0.6"
           style="fill:#502e26"
           id="path246" /><path
           class="st20"
           d="m 365.4,670.5 c -0.6,0.5 -1,1.2 -1.3,1.9 -0.1,0.2 -0.2,0.4 -0.1,0.6 0.1,0.2 0.3,0.2 0.5,0.3 0.8,0.4 1,1.4 1.6,2 0.9,0.9 2.3,0.8 3.5,0.6 0.9,-0.2 1.8,-0.4 2.6,-0.8 0.8,-0.5 1.4,-1.3 1.5,-2.2 0,-1.1 -0.8,-2.1 -1.9,-2.5 -1.1,-0.3 -2.2,-0.1 -3.2,0.4"
           style="fill:#502e26"
           id="path247" /><path
           class="st20"
           d="m 351.2,673.3 c -0.4,0.5 -0.9,1 -1.1,1.6 -0.2,0.6 -0.1,1.4 0.4,1.8 0.2,0.2 0.6,0.3 0.9,0.4 1.4,0.4 2.9,0.4 4.1,-0.4 1.2,-0.8 1.7,-2.6 0.7,-3.7 -0.6,-0.7 -1.6,-0.9 -2.5,-0.8 -0.9,0.2 -1.7,0.7 -2.5,1.2"
           style="fill:#502e26"
           id="path248" /><path
           class="st20"
           d="m 372.3,652.3 c -1.1,0.4 -1.6,1.8 -1.4,2.9 0.2,1.1 0.8,2.1 1.5,3.1 0.4,0.6 0.8,1.1 1.5,1.3 0.8,0.2 1.5,-0.4 2.3,-0.6 0.5,-0.1 1.1,0 1.6,-0.1 1.8,-0.4 2.4,-2.8 1.5,-4.4 -0.9,-1.6 -2.7,-2.3 -4.5,-2.7 -0.2,0 -0.4,-0.1 -0.6,0 -0.1,0.1 -0.2,0.2 -0.2,0.4 -0.2,0.6 -0.4,1.1 -0.6,1.7"
           style="fill:#502e26"
           id="path249" /><path
           class="st20"
           d="m 379.8,662.9 c -0.6,0.5 -1,1.1 -1.2,1.9 0.7,-0.2 1.6,0.3 1.9,1 0.1,0.3 0.1,0.5 0.3,0.7 0.1,0.2 0.4,0.4 0.6,0.4 1.5,0.5 3.3,-0.7 3.4,-2.2 0,-0.3 0,-0.6 -0.2,-0.8 -0.2,-0.3 -0.5,-0.4 -0.9,-0.5 -0.9,-0.3 -1.9,-0.3 -2.9,-0.2"
           style="fill:#502e26"
           id="path250" /><path
           class="st20"
           d="m 385,650.8 c -0.7,0.7 -1.5,1.9 -0.8,2.7 0.4,0.5 1.3,0.8 1.3,1.4 0,0.2 -0.1,0.4 -0.1,0.7 0.1,0.5 0.8,0.6 1.3,0.5 1.1,-0.2 2.2,-0.4 3.2,-0.9 1,-0.5 1.7,-1.6 1.6,-2.7 -0.1,-1.3 -1.3,-2.3 -2.6,-2.5 -1.3,-0.2 -2.6,0.3 -3.7,0.9"
           style="fill:#502e26"
           id="path251" /><path
           class="st20"
           d="m 384.2,671.8 c -0.2,0.6 -0.7,1 -1,1.5 -0.3,0.5 -0.5,1.2 -0.1,1.7 0.2,0.3 0.6,0.5 0.8,0.8 0.5,0.6 0.2,1.7 0.9,2.1 0.3,0.2 0.7,0.1 1,0.1 1.4,-0.3 2.8,-0.9 3.9,-1.7 0.5,-0.4 1,-0.8 1.3,-1.4 0.6,-1.4 -0.4,-3.2 -1.8,-3.7 -1.4,-0.6 -3.1,-0.3 -4.5,0.2"
           style="fill:#502e26"
           id="path252" /></g><g
         class="st25"
         style="opacity:0.08"
         id="g296"><path
           class="st20"
           d="m 148.9,606.9 c -1.1,1.2 -1.9,2.7 -2.2,4.3 0.7,0 1.5,0.1 2.2,0.1 -0.5,1.1 0.7,2.3 1.9,2.2 1.2,-0.1 2,-1.3 2.2,-2.5 0.2,-1.2 -0.1,-2.3 -0.5,-3.5 -0.2,-0.7 -0.4,-1.4 -1,-1.8 -0.6,-0.4 -1.5,-0.4 -1.8,0.3"
           style="fill:#502e26"
           id="path253" /><path
           class="st20"
           d="m 158.9,610 c -1.1,0.7 -1.7,2.1 -1.5,3.4 0.2,-0.5 1,-0.4 1.3,0 0.3,0.4 0.3,1 0.4,1.6 0.1,0.6 0.3,1.1 0.9,1.2 0.4,0.1 0.8,-0.2 1.1,-0.4 1,-0.9 1.3,-2.5 0.9,-3.7 -0.5,-1.3 -1.7,-2.2 -3.1,-2.3"
           style="fill:#502e26"
           id="path254" /><path
           class="st20"
           d="m 174.5,607.6 c -1.2,0.8 -2.1,2.1 -2.5,3.5 1,-0.2 2,0.4 2.3,1.4 0.1,0.3 0.1,0.5 0.2,0.8 0.6,0.8 1.8,0 2.5,-0.7 0.5,-0.5 1.2,-1 1.4,-1.7 0.5,-1.3 -0.7,-2.8 -2.1,-3.2 -1.4,-0.4 -2.8,0 -4.2,0.5"
           style="fill:#502e26"
           id="path255" /><path
           class="st20"
           d="m 180.6,619.4 c -1.5,0.2 -2.9,1.3 -3.3,2.7 0.7,1 2.9,0.2 3.3,1.4 0.1,0.4 0,0.8 0.1,1.2 0.2,0.5 0.9,0.7 1.4,0.6 0.5,-0.1 0.9,-0.6 1.3,-1 0.6,-0.7 1.3,-1.4 1.3,-2.4 0,-1 -0.9,-1.9 -1.9,-2.2 -1,-0.3 -2.1,-0.2 -3.1,-0.1"
           style="fill:#502e26"
           id="path256" /><path
           class="st20"
           d="m 191.9,610.3 c -1.5,0.2 -2.4,2.1 -1.7,3.3 0.8,1.3 2.9,1.3 3.7,0 0.7,-1.2 0.1,-2.6 -0.5,-3.8 -0.3,-0.7 -0.8,-1.4 -1.5,-1.5"
           style="fill:#502e26"
           id="path257" /><path
           class="st20"
           d="m 163.2,599.4 c -1,0.4 -1.9,1.1 -2.5,2 -0.2,0.3 -0.4,0.6 -0.3,0.9 0.1,0.6 0.9,0.8 1.5,0.8 1.5,0 3.1,0 4.4,-0.8 1.3,-0.8 1.8,-2.8 0.7,-3.9 -0.5,-0.4 -1.1,-0.6 -1.8,-0.6 -1.7,0 -3.3,1.3 -3.8,2.9"
           style="fill:#502e26"
           id="path258" /><path
           class="st20"
           d="m 202.8,622.1 c -1.4,-0.7 -3.1,-0.8 -4.4,-0.1 -1.3,0.7 -2.3,2.3 -1.8,3.8 1.5,-0.2 3,-0.1 4.4,0.3 0.4,0.1 0.7,0.2 1.1,0.2 0.3,0 0.5,-0.1 0.8,-0.3 0.8,-0.5 1.3,-1.7 1,-2.6 -0.3,-1 -1.3,-1.7 -2.3,-1.6"
           style="fill:#502e26"
           id="path259" /><path
           class="st20"
           d="m 203.7,601.6 c -0.7,0.7 -1.2,1.6 -1.5,2.5 -0.2,0.5 -0.3,1.2 0,1.7 0.3,0.5 1,0.8 1.4,0.4 0.1,0.6 0.1,1.1 0.2,1.7 1.5,0.1 3,-0.7 3.7,-2 0.2,-0.4 0.4,-0.8 0.4,-1.2 0,-0.9 -0.8,-1.7 -1.7,-2 -0.9,-0.3 -1.8,-0.1 -2.7,0"
           style="fill:#502e26"
           id="path260" /><path
           class="st20"
           d="m 211,611.6 c -1.6,0.5 -3,1.5 -4,2.9 -0.1,0.2 -0.3,0.4 -0.3,0.6 0,0.6 0.9,0.8 1.5,0.7 1.5,-0.2 2.8,-1.1 3.7,-2.2 0.2,-0.2 0.3,-0.4 0.3,-0.7 0,-0.4 -0.2,-0.7 -0.5,-0.9 -1,-0.7 -2.5,-0.4 -3.1,0.6"
           style="fill:#502e26"
           id="path261" /><path
           class="st20"
           d="m 217.2,620.7 c -1.2,1 -2.2,2.3 -2.8,3.7 -0.1,0.2 -0.2,0.4 -0.1,0.6 0.2,0.4 0.8,0.3 1.2,0.4 1,0.1 1.7,1.2 2.7,1.3 0.3,0 0.7,-0.1 1,-0.3 1.2,-0.7 1.8,-2.3 1.3,-3.5 -0.5,-1.3 -2.1,-2 -3.4,-1.4"
           style="fill:#502e26"
           id="path262" /><path
           class="st20"
           d="m 220.3,606 c -0.8,1.2 -1.2,2.8 -1,4.2 1.9,0.6 4.1,-0.1 5.3,-1.6 0.2,-0.2 0.3,-0.4 0.3,-0.7 0,-0.5 -0.5,-0.8 -1,-0.9 -1,-0.3 -2,-0.6 -3.1,-0.6"
           style="fill:#502e26"
           id="path263" /><path
           class="st20"
           d="M 229.2,617.5"
           style="fill:#502e26"
           id="path264" /><path
           class="st20"
           d="M 229.2,617.5"
           style="fill:#502e26"
           id="path265" /><path
           class="st20"
           d="m 228.1,618.8 c -0.6,0.9 0.7,2.1 1.7,1.7 1,-0.5 1,-2 0.3,-2.7 -0.8,-0.7 -2,-0.8 -3,-0.3"
           style="fill:#502e26"
           id="path266" /><path
           class="st20"
           d="m 238.1,628.8 c -1,0.8 -2.2,2.1 -1.4,3.2 0.5,0.6 1.4,0.7 2,1 0.5,0.3 1,0.7 1.5,0.9 0.9,0.3 2,-0.3 2.5,-1.1 0.5,-0.8 0.7,-1.8 0.8,-2.8 0.1,-0.6 0.1,-1.2 -0.3,-1.6 -0.3,-0.3 -0.8,-0.4 -1.2,-0.3 -1.2,0.1 -2.4,0.6 -3.3,1.4"
           style="fill:#502e26"
           id="path267" /><path
           class="st20"
           d="m 239.7,614.8 c -1,0.7 -1.8,1.6 -2.4,2.6 -0.2,0.4 -0.4,1.1 0,1.3 0.2,0.2 0.6,0.1 0.8,0.2 0.4,0.2 0.6,0.7 0.8,1 0.6,1 2.1,1 3.1,0.4 1,-0.6 1.5,-1.8 1.8,-2.9 0.1,-0.5 0.2,-1 0,-1.4 -0.2,-0.3 -0.5,-0.4 -0.8,-0.5 -1.3,-0.5 -2.7,-0.8 -4,-0.7"
           style="fill:#502e26"
           id="path268" /><path
           class="st20"
           d="m 246.7,609.6 c -0.9,0.1 -1.1,1.4 -0.6,2.1 0.6,0.7 1.5,0.9 2.4,0.9 0.4,0 0.9,0 1.3,-0.1 1.3,-0.4 1.9,-2.1 1.2,-3.2 -0.7,-1.1 -2.5,-1.3 -3.4,-0.3"
           style="fill:#502e26"
           id="path269" /><path
           class="st20"
           d="m 254.4,620.5 c -1.9,0.2 -3.6,1.5 -4.3,3.2 0.4,-0.2 0.7,0.5 0.6,0.9 -0.1,0.4 -0.4,1 0,1.3 0.2,0.1 0.4,0.1 0.6,0.1 2.7,0 5.6,-1.5 6.4,-4.1 0.1,-0.3 0.1,-0.6 0.1,-0.8 -0.1,-0.6 -0.7,-0.9 -1.3,-1 -0.6,-0.1 -1.2,0.1 -1.7,0.3"
           style="fill:#502e26"
           id="path270" /><path
           class="st20"
           d="m 259.1,632.7 c -1.8,0.4 -3.4,1.3 -4.8,2.5 0.2,0.7 0.4,1.4 0.8,2 0.4,0.6 1.1,1 1.8,0.9 0.5,-0.1 0.9,-0.3 1.3,-0.5 1.2,-0.5 2.7,-0.4 3.5,-1.5 0.4,-0.6 0.4,-1.5 -0.1,-2.1 -0.5,-0.6 -1.4,-0.8 -2.1,-0.4"
           style="fill:#502e26"
           id="path271" /><path
           class="st20"
           d="m 263.4,624.1 c -0.4,0.4 -0.8,0.7 -1.1,1.2 -0.2,0.5 -0.3,1.1 0.1,1.5 0.3,0.3 0.8,0.4 1.3,0.5 1.1,0.2 2.3,0.3 3,-0.6 0.6,-0.8 0.3,-2 -0.5,-2.6 -0.8,-0.6 -1.9,-0.6 -2.8,-0.3"
           style="fill:#502e26"
           id="path272" /><path
           class="st20"
           d="m 267.1,612.6 c -0.9,0.6 -1.7,1.5 -2.1,2.5 -0.1,0.2 -0.2,0.5 -0.1,0.7 0.3,0.6 1.2,0.1 1.8,0.4 0.7,0.3 0.4,1.5 0.8,2.1 0.6,0.8 1.8,0.4 2.7,-0.1 0.6,-0.4 1.3,-0.8 1.9,-1.1 0.4,-0.3 0.9,-0.6 1.1,-1.1 0.2,-0.6 -0.3,-1.3 -0.7,-1.8 -1.2,-1.1 -2.8,-1.9 -4.4,-2"
           style="fill:#502e26"
           id="path273" /><path
           class="st20"
           d="m 279.4,625.7 c -0.9,0.2 -1.7,0.6 -2.5,1.1 -0.2,0.1 -0.4,0.3 -0.5,0.5 -0.2,0.5 0.2,1.1 0.6,1.4 2,1.7 5.5,1.3 7.1,-0.9 0.2,-0.3 0.3,-0.6 0.2,-0.9 -0.1,-0.2 -0.2,-0.3 -0.4,-0.4 -1.6,-1.1 -3.8,-1.3 -5.5,-0.4"
           style="fill:#502e26"
           id="path274" /><path
           class="st20"
           d="m 270.5,636.9 c -0.2,0.3 -0.5,0.5 -0.7,0.8 1.4,0.3 1.6,2.3 2.8,3.1 0.4,0.2 0.8,0.3 1.2,0.3 1.3,-0.2 2,-1.9 1.4,-3.1 -0.6,-1.2 -2.2,-1.7 -3.4,-1.3"
           style="fill:#502e26"
           id="path275" /><path
           class="st20"
           d="m 288.5,615.3 c -0.9,0.6 -1.5,1.5 -1.8,2.5 0,0.1 -0.1,0.3 0,0.4 0.1,0.2 0.3,0.3 0.6,0.3 0.9,0.1 1.8,-0.2 2.6,0.2 0.7,0.3 1.1,1 1.8,1.3 0.9,0.3 1.8,-0.4 2,-1.3 0.2,-0.9 -0.2,-1.8 -0.8,-2.5 -0.6,-0.7 -1.4,-1.1 -2.2,-1.5 -0.7,-0.3 -1.9,-0.4 -1.9,0.3"
           style="fill:#502e26"
           id="path276" /><path
           class="st20"
           d="m 293.2,627.3 c -0.4,0.9 0.3,2 1.2,2.2 0.4,0.1 0.9,0 1.3,0.1 0.9,0.2 1.4,1.1 2.3,1.3 1,0.3 2,-0.3 2.7,-1 0.4,-0.5 0.8,-1 0.9,-1.6 0.2,-1.1 -0.5,-2.2 -1.3,-3 -0.8,-0.8 -1.7,-1.4 -2.8,-1.6 -1.1,-0.2 -2.3,0.1 -3,0.9"
           style="fill:#502e26"
           id="path277" /><path
           class="st20"
           d="m 289.1,636.2 c -1.4,0.7 -2.5,2 -2.9,3.6 0.4,-0.2 0.9,0.3 1.1,0.7 0.1,0.5 0.2,1.1 0.7,1.3 0.7,0.4 1.6,-0.6 2.4,-0.3 0.3,0.1 0.5,0.3 0.8,0.5 0.6,0.3 1.3,-0.1 1.7,-0.7 0.3,-0.6 0.4,-1.2 0.5,-1.9 0,-0.4 0,-0.7 -0.2,-1 -0.2,-0.2 -0.4,-0.3 -0.7,-0.3 -1.1,-0.3 -2.3,-0.7 -3.4,-1"
           style="fill:#502e26"
           id="path278" /><path
           class="st20"
           d="m 298.9,635.2 c -0.1,0.5 -0.6,0.9 -0.8,1.4 -0.2,0.5 -0.1,1.3 0.5,1.3 0.2,0 0.4,-0.1 0.6,-0.1 0.5,-0.1 0.8,0.4 1.2,0.6 0.9,0.6 2.3,0.1 2.7,-0.9 0.4,-1 -0.1,-2.3 -1.1,-2.8 -1,-0.5 -2.3,-0.2 -3,0.5"
           style="fill:#502e26"
           id="path279" /><path
           class="st20"
           d="m 310.4,638.9 c -1.6,1.6 -2.8,3.7 -3.4,5.9 -0.1,0.4 -0.1,0.9 0.2,1 0.3,0.1 0.7,-0.1 1,0 0.5,0.1 0.5,0.8 0.7,1.3 0.4,1.1 1.8,1.4 3,1.6 1.1,0.1 2.3,0.2 3.4,0.4 0.4,0 0.8,0.1 1.1,-0.1 0.5,-0.3 0.6,-1 0.6,-1.6 -0.2,-1.8 -1.4,-3.5 -3.1,-4.3 -0.8,-0.4 -1.9,-0.7 -1.9,-1.6 0,-0.3 0.1,-0.6 0.1,-0.9 -0.1,-0.9 -1.4,-1 -2.3,-0.8"
           style="fill:#502e26"
           id="path280" /><path
           class="st20"
           d="m 307.7,617.4 c -0.4,0.8 -0.8,1.6 -1.1,2.4 -0.1,0.2 -0.2,0.5 -0.2,0.7 0.1,0.8 1.3,0.8 2.1,1.2 1,0.6 1.3,2.2 2.4,2.5 0.8,0.2 1.6,-0.6 2.1,-1.3 0.6,-0.7 1.2,-1.5 1.5,-2.3 0.3,-0.9 0.4,-1.9 -0.2,-2.7 -0.3,-0.5 -0.9,-0.9 -1.4,-1.2 -0.9,-0.6 -1.9,-1.1 -3,-1 -1.1,0.1 -2.1,1.1 -1.8,2.2"
           style="fill:#502e26"
           id="path281" /><path
           class="st20"
           d="m 310,631.2 c -0.3,-0.8 0.3,-1.7 1.1,-2 0.8,-0.3 1.7,0 2.4,0.3 0.6,0.3 1.3,0.7 1.6,1.3 -0.9,0.7 -2,1.3 -3,1.8"
           style="fill:#502e26"
           id="path282" /><path
           class="st20"
           d="m 319.5,634.4 c -0.8,0.8 -1.7,2 -1,2.9 0.2,0.2 0.5,0.4 0.7,0.6 0.8,0.8 0.7,2.1 1.4,3 0.7,0.8 1.8,1 2.8,0.9 0.6,0 1.3,-0.2 1.7,-0.7 0.6,-0.7 0.4,-1.8 0,-2.6 -1,-2 -3,-3.4 -5.1,-3.7"
           style="fill:#502e26"
           id="path283" /><path
           class="st20"
           d="m 326.3,624.9 c -0.8,0.5 -1.6,1.3 -1.2,2.1 0.1,0.3 0.4,0.4 0.7,0.6 0.8,0.7 1.1,1.9 0.7,2.9 1.2,-0.1 2.5,-0.2 3.7,-0.3 0.8,-1.4 1.4,-2.8 1.7,-4.3 0.1,-0.3 0.1,-0.6 0,-0.9 -0.1,-0.3 -0.4,-0.5 -0.6,-0.6 -1.2,-0.7 -2.9,-0.7 -4.1,0.2"
           style="fill:#502e26"
           id="path284" /><path
           class="st20"
           d="m 335.4,634.2 c -0.7,0.8 -1.2,1.7 -1.6,2.6 -0.1,0.2 -0.1,0.3 -0.1,0.5 0.1,0.7 1.4,0.3 1.8,0.9 0.2,0.4 0,0.8 0.1,1.2 0.2,0.6 0.9,0.7 1.5,0.5 0.6,-0.2 1.1,-0.5 1.7,-0.5 0.4,0 0.8,0.2 1.2,0.1 0.7,-0.1 1.1,-0.8 1.1,-1.5 0.1,-1.3 -0.9,-2.4 -2.1,-2.9 -1.2,-0.5 -2.5,-0.4 -3.7,-0.4"
           style="fill:#502e26"
           id="path285" /><path
           class="st20"
           d="m 340.4,623.8 c -0.7,0.9 -1.1,2.1 -1.2,3.2 1,0.7 1.2,2.2 0.6,3.2 0.9,-0.2 1.7,-0.4 2.6,-0.6 0.3,-0.1 0.7,-0.2 1,-0.3 1.6,-0.7 2.4,-2.8 1.6,-4.4 -0.8,-1.6 -3,-2.2 -4.5,-1.4"
           style="fill:#502e26"
           id="path286" /><path
           class="st20"
           d="m 332.3,647.2 c -0.2,0.4 -0.4,0.8 -0.6,1.3 -0.2,0.5 -0.4,1.1 -0.1,1.5 0.7,0.8 2.5,-0.6 2.9,0.3 0.1,0.2 0,0.5 0.2,0.7 0.3,0.4 1,0 1.3,-0.4 0.7,-1 1.1,-2.3 1.2,-3.5 0,-0.3 0,-0.6 -0.1,-0.8 -0.2,-0.3 -0.5,-0.4 -0.8,-0.5 -0.8,-0.3 -1.6,-0.6 -2.4,-0.4 -0.8,0.2 -1.4,1.2 -1,1.8"
           style="fill:#502e26"
           id="path287" /><path
           class="st20"
           d="m 347.3,642.4 c -0.9,0.4 -1.4,1.5 -1.1,2.5 0.3,-0.4 1,-0.1 1.3,0.3 0.3,0.5 0.4,1 0.9,1.3 0.6,0.4 1.4,0 1.9,-0.4 1.7,-1.3 2.9,-3.2 3.2,-5.3 0,-0.2 0.1,-0.4 0,-0.5 -0.1,-0.2 -0.4,-0.3 -0.6,-0.3 -1.8,-0.2 -3.7,0.4 -5.1,1.7"
           style="fill:#502e26"
           id="path288" /><path
           class="st20"
           d="m 355.5,626.3 c -1.5,-0.1 -2.5,1.8 -2.2,3.3 0.3,1.5 1.5,2.6 2.6,3.7 0.2,0.2 0.4,0.3 0.6,0.4 0.3,0.1 0.6,0 0.8,-0.1 0.9,-0.3 1.8,-0.7 2.8,-1 0.4,-0.1 0.8,-0.3 1.1,-0.5 1,-0.7 1.3,-2.1 1.4,-3.4 0.1,-0.4 0.1,-0.8 -0.1,-1.1 -0.2,-0.4 -0.6,-0.6 -1,-0.8 -1.9,-0.8 -4,-1.2 -6.1,-1.1"
           style="fill:#502e26"
           id="path289" /><path
           class="st20"
           d="m 359.6,638.4 c -0.3,1.5 0.8,2.9 1.9,4.1 0.3,0.3 0.5,0.6 0.9,0.7 1,0.4 2,-0.6 2.5,-1.5 0.8,-1.4 1.3,-2.9 1.5,-4.4 0,-0.2 0.1,-0.5 -0.1,-0.7 -0.1,-0.2 -0.4,-0.3 -0.6,-0.3 -1.8,-0.4 -4,-0.7 -5.4,0.6"
           style="fill:#502e26"
           id="path290" /><path
           class="st20"
           d="m 367.1,649.8 c -0.6,0.5 -1,1.2 -1.3,1.9 -0.1,0.2 -0.2,0.4 -0.1,0.6 0.1,0.2 0.3,0.2 0.5,0.3 0.8,0.4 1,1.4 1.6,2 0.9,0.9 2.3,0.8 3.5,0.6 0.9,-0.2 1.8,-0.4 2.6,-0.8 0.8,-0.5 1.4,-1.3 1.5,-2.2 0,-1.1 -0.8,-2.1 -1.9,-2.5 -1.1,-0.3 -2.2,-0.1 -3.2,0.4"
           style="fill:#502e26"
           id="path291" /><path
           class="st20"
           d="m 352.9,652.5 c -0.4,0.5 -0.9,1 -1.1,1.6 -0.2,0.6 -0.1,1.4 0.4,1.8 0.2,0.2 0.6,0.3 0.9,0.4 1.4,0.4 2.9,0.4 4.1,-0.4 1.2,-0.8 1.7,-2.6 0.7,-3.7 -0.6,-0.7 -1.6,-0.9 -2.5,-0.8 -0.9,0.2 -1.7,0.7 -2.5,1.2"
           style="fill:#502e26"
           id="path292" /><path
           class="st20"
           d="m 374.1,631.6 c -1.1,0.4 -1.6,1.8 -1.4,2.9 0.2,1.1 0.8,2.1 1.5,3.1 0.4,0.6 0.8,1.1 1.5,1.3 0.8,0.2 1.5,-0.4 2.3,-0.6 0.5,-0.1 1.1,0 1.6,-0.1 1.8,-0.4 2.4,-2.8 1.5,-4.4 -0.9,-1.6 -2.7,-2.3 -4.5,-2.7 -0.2,0 -0.4,-0.1 -0.6,0 -0.1,0.1 -0.2,0.2 -0.2,0.4 -0.2,0.6 -0.4,1.1 -0.6,1.7"
           style="fill:#502e26"
           id="path293" /><path
           class="st20"
           d="m 381.5,642.1 c -0.6,0.5 -1,1.1 -1.2,1.9 0.7,-0.2 1.6,0.3 1.9,1 0.1,0.3 0.1,0.5 0.3,0.7 0.1,0.2 0.4,0.4 0.6,0.4 1.5,0.5 3.3,-0.7 3.4,-2.2 0,-0.3 0,-0.6 -0.2,-0.8 -0.2,-0.3 -0.5,-0.4 -0.9,-0.5 -0.9,-0.3 -1.9,-0.3 -2.9,-0.2"
           style="fill:#502e26"
           id="path294" /><path
           class="st20"
           d="m 386.7,630.1 c -0.7,0.7 -1.5,1.9 -0.8,2.7 0.4,0.5 1.3,0.8 1.3,1.4 0,0.2 -0.1,0.4 -0.1,0.7 0.1,0.5 0.8,0.6 1.3,0.5 1.1,-0.2 2.2,-0.4 3.2,-0.9 1,-0.6 1.7,-1.6 1.6,-2.7 -0.1,-1.3 -1.3,-2.3 -2.6,-2.5 -1.3,-0.2 -2.6,0.3 -3.7,0.9"
           style="fill:#502e26"
           id="path295" /><path
           class="st20"
           d="m 385.9,651 c -0.2,0.6 -0.7,1 -1,1.5 -0.3,0.5 -0.5,1.2 -0.1,1.7 0.2,0.3 0.6,0.5 0.8,0.8 0.5,0.6 0.2,1.7 0.9,2.1 0.3,0.2 0.7,0.1 1,0.1 1.4,-0.3 2.8,-0.9 3.9,-1.7 0.5,-0.4 1,-0.8 1.3,-1.4 0.6,-1.4 -0.4,-3.2 -1.8,-3.7 -1.4,-0.5 -3.1,-0.3 -4.5,0.2"
           style="fill:#502e26"
           id="path296" /></g><g
         id="g297"><path
           class="st105"
           d="m 143.1,628.5 c -0.1,-2 -0.7,-4.7 -0.3,-6.6 0.4,-1.7 1.9,-2.7 1.6,-4.8 -0.3,-1.7 -1.5,-2.9 -1.9,-4.5 -0.2,-1 -0.6,-3.3 -0.2,-4.3 0.5,-1.1 2.1,-0.7 2.5,-2.3 0.4,-1.8 -1.2,-4.3 -1.5,-6 -0.4,-2.3 0.6,-3.9 -1.5,-5.9 -7.5,-7.3 -5.9,15.1 -5.9,17.2 0.2,12.4 0.4,24.8 0.7,37.3 0.2,12.7 0.5,25.4 2.7,37.9 0.5,2.6 1.9,13.6 5.9,8.3 1.2,-1.7 1,-4.8 0.8,-6.7 -0.2,-3 -1.5,-2.9 -2.3,-5.4 -0.5,-1.4 1.1,-2.2 1.2,-3.4 0.1,-3 -3.9,-8.1 -1.3,-10.4 0.9,-0.8 2.1,-1.7 1.9,-2.9 -0.2,-0.7 -0.8,-1.2 -1.3,-1.8 -1.2,-1.4 -0.4,-7.3 -0.7,-9.3 -0.4,-3.4 -0.9,-6.7 -0.9,-10.1 0,-2.8 1.4,-5.1 1.1,-7.9 -0.2,-2.8 -0.5,-5.6 -0.6,-8.4 z"
           style="fill:#fbe6c6"
           id="path297" /></g><g
         class="st19"
         style="opacity:0.07"
         id="g298"><path
           class="st20"
           d="m 137.1,583.9 c -0.4,13.5 0.8,37.3 1.9,59.7 1.5,29.5 2.6,56.4 5.3,59.1 5.7,5.7 20.6,11.1 20.6,11.1 0,0 27.2,4.4 42,7.7 -1.5,-10.3 -3.3,-34.8 -4.4,-56.5 -0.8,-15.1 -1.7,-43.1 -2.1,-69 -11.2,-0.3 -30.2,-5.1 -63.3,-12.1 z"
           style="fill:#502e26"
           id="path298" /></g></g></g></svg>
